<svg width="24" height="25" viewBox="0 0 24 25" fill="none" xmlns="http://www.w3.org/2000/svg">
<path d="M3 16.5L7.46967 12.0303C7.80923 11.6908 8.26978 11.5 8.75 11.5C9.23022 11.5 9.69077 11.6908 10.0303 12.0303L14 16M14 16L15.5 17.5M14 16L15.9697 14.0303C16.3092 13.6908 16.7698 13.5 17.25 13.5C17.7302 13.5 18.1908 13.6908 18.5303 14.0303L21 16.5" stroke="#FF6F3C" stroke-width="1.5" stroke-linecap="round" stroke-linejoin="round"/>
<path d="M12 3C7.77027 3 5.6554 3 4.25276 4.19797C4.05358 4.36808 3.86808 4.55358 3.69797 4.75276C2.5 6.1554 2.5 8.27027 2.5 12.5C2.5 16.7297 2.5 18.8446 3.69797 20.2472C3.86808 20.4464 4.05358 20.6319 4.25276 20.802C5.6554 22 7.77027 22 12 22C16.2297 22 18.3446 22 19.7472 20.802C19.9464 20.6319 20.1319 20.4464 20.302 20.2472C21.5 18.8446 21.5 16.7297 21.5 12.5" stroke="#FF6F3C" stroke-width="1.5" stroke-linecap="round" stroke-linejoin="round"/>
<path d="M21.5 6.5H18M18 6.5H14.5M18 6.5V3M18 6.5V10" stroke="#FF6F3C" stroke-width="1.5" stroke-linecap="round" stroke-linejoin="round"/>
</svg>
