<svg width="24" height="25" viewBox="0 0 24 25" fill="none" xmlns="http://www.w3.org/2000/svg">
<path d="M17 7.5V11.5C17 14.2614 14.7614 16.5 12 16.5C9.23858 16.5 7 14.2614 7 11.5V7.5C7 4.73858 9.23858 2.5 12 2.5C14.7614 2.5 17 4.73858 17 7.5Z" stroke="#FF6F3C" stroke-width="1.5"/>
<path d="M17 7.5H14M17 11.5H14" stroke="#FF6F3C" stroke-width="1.5" stroke-linecap="round"/>
<path d="M20 11.5C20 15.9183 16.4183 19.5 12 19.5M12 19.5C7.58172 19.5 4 15.9183 4 11.5M12 19.5V22.5M12 22.5H15M12 22.5H9" stroke="#FF6F3C" stroke-width="1.5" stroke-linecap="round"/>
</svg>
