<svg width="21" height="21" viewBox="0 0 21 21" fill="none" xmlns="http://www.w3.org/2000/svg">
<path d="M14.5396 0C14.5885 0 14.6374 0 14.689 0C14.8089 1.48096 14.2436 2.58754 13.5566 3.38888C12.8825 4.18469 11.9594 4.95653 10.4665 4.83942C10.3669 3.37966 10.9331 2.35516 11.6192 1.55566C12.2555 0.810565 13.422 0.147543 14.5396 0Z" fill="black"/>
<path d="M19.06 15.4146C19.06 15.4293 19.06 15.4422 19.06 15.4561C18.6404 16.7268 18.042 17.8158 17.3116 18.8265C16.6449 19.744 15.8279 20.9788 14.3691 20.9788C13.1085 20.9788 12.2712 20.1682 10.9793 20.1461C9.61263 20.124 8.86109 20.8239 7.61158 21C7.46865 21 7.32572 21 7.18555 21C6.26802 20.8672 5.52753 20.1406 4.98808 19.4858C3.39738 17.5512 2.16816 15.0522 1.93947 11.8542C1.93947 11.5406 1.93947 11.228 1.93947 10.9145C2.03629 8.62575 3.1484 6.76486 4.6266 5.86301C5.40673 5.38349 6.47919 4.97498 7.67336 5.15756C8.18515 5.23687 8.70801 5.41208 9.16632 5.58544C9.60065 5.75235 10.1438 6.04836 10.6583 6.03268C11.0069 6.02254 11.3536 5.84087 11.705 5.7127C12.7341 5.34107 13.7429 4.91504 15.0727 5.11515C16.6707 5.35675 17.805 6.0668 18.5058 7.16231C17.1539 8.02267 16.0852 9.3192 16.2678 11.5333C16.43 13.5445 17.5993 14.7211 19.06 15.4146Z" fill="black"/>
</svg>
