<svg width="24" height="24" viewBox="0 0 24 24" fill="none" xmlns="http://www.w3.org/2000/svg">
<path fill-rule="evenodd" clip-rule="evenodd" d="M20.875 12.0012C20.875 12.5259 20.6067 12.9205 20.3138 13.2272C20.041 13.5128 19.6117 13.8509 19.175 14.1949L18.1612 14.9935C17.4187 15.5785 16.7971 16.0681 16.2799 16.3683C15.7596 16.6701 15.1199 16.9154 14.4567 16.6217C13.7754 16.3201 13.5533 15.668 13.4631 15.0812C13.3805 14.5435 13.3753 13.8342 13.375 13H4.125C3.5727 13 3.125 12.5523 3.125 12C3.125 11.4477 3.5727 11 4.125 11H13.375C13.3753 10.1677 13.3807 9.45992 13.4631 8.92321C13.5533 8.33642 13.7754 7.68431 14.4567 7.38265C15.1199 7.089 15.7596 7.33426 16.2799 7.63613C16.7971 7.93625 17.4187 8.42591 18.1612 9.01087L19.175 9.80952C19.6117 10.1535 20.041 10.4916 20.3138 10.7772C20.6067 11.0838 20.875 11.4765 20.875 12.0012Z" fill="#3BB515"/>
</svg>
