<svg width="29" height="28" viewBox="0 0 29 28" fill="none" xmlns="http://www.w3.org/2000/svg">
<g clip-path="url(#clip0_1637_344)">
<path d="M27.5196 0.0897832C27.5134 0.0890176 27.5079 0.0895645 27.5018 0.0892363L27.4968 0.0872129C27.146 -0.0291607 26.7005 0.127845 26.3574 0.219665C25.9125 0.338718 25.5311 0.60023 25.1072 0.770142C24.6449 0.955586 24.1589 1.0783 23.687 1.2358C23.2278 1.38898 22.7879 1.60707 22.3227 1.74094C20.5184 2.26025 18.8613 3.16466 17.0845 3.77212C16.6234 3.92984 16.1997 4.12392 15.7629 4.33797C15.3296 4.55043 14.8494 4.68342 14.3941 4.84245C13.4887 5.15893 12.6028 5.54376 11.7229 5.92525C10.7886 6.33032 9.83227 6.67195 8.91036 7.10474C8.4762 7.3085 8.02701 7.38922 7.58295 7.55547C7.11406 7.73101 6.6659 7.89294 6.18204 8.03119C5.70697 8.16687 5.27757 8.39617 4.82028 8.57429C4.33696 8.76263 3.88956 9.00516 3.37671 9.11897C2.85866 9.23392 2.42352 9.47678 1.92182 9.64653C1.53797 9.77641 1.01916 9.8772 0.69246 10.1289C0.508767 10.2705 0.40858 10.5521 0.614312 10.7361C0.824638 10.9243 1.08954 10.9994 1.35997 11.0604C1.76044 11.1509 2.15506 11.2557 2.5628 11.309C3.50233 11.4316 4.43162 11.6629 5.33357 11.9586C6.13211 12.2204 6.86764 12.5802 7.65174 12.8608C7.75882 12.8991 7.96712 12.9357 8.04472 13.023C8.17986 13.1751 8.1115 13.5801 8.10969 13.7622C8.1051 14.2299 8.08169 14.7069 8.13687 15.1718C8.14283 15.2219 8.17258 15.2633 8.21136 15.2906C8.22361 15.5313 8.24067 15.7709 8.21961 16.0187C8.18921 16.3771 8.24406 16.7109 8.24641 17.0668C8.24882 17.4522 8.21431 17.828 8.23914 18.2142C8.28425 18.9147 8.29125 19.5978 8.38553 20.2969C8.47681 20.9738 8.53445 21.6458 8.61303 22.3232C8.64694 22.6147 8.70315 22.9011 8.73066 23.193C8.75833 23.4865 8.80022 23.8144 9.0199 24.034C9.19577 24.2098 9.468 24.2677 9.70496 24.1871C9.99322 24.0888 10.0295 23.8552 10.1892 23.6382C10.3636 23.4013 10.5843 23.1848 10.7652 22.9486C10.969 22.6823 11.1467 22.404 11.334 22.1263C11.7434 21.5194 12.2875 20.9747 12.7998 20.4543C13.3305 19.9153 13.8209 19.3116 14.2176 18.6664C14.4144 18.3463 14.5921 18.0313 14.8237 17.7342C15.0333 17.4653 15.1895 17.2339 15.0858 16.885C15.0842 16.8798 15.0819 16.875 15.0802 16.8699C15.2535 16.9506 15.4276 17.0294 15.5999 17.1135C16.0114 17.3146 16.4442 17.4723 16.8535 17.6755C17.2855 17.89 17.7174 18.01 18.185 18.1297C19.1003 18.3636 20.0061 18.5804 20.7842 19.1465C20.9536 19.2697 21.2017 19.1699 21.302 19.0108C21.4542 18.7696 21.499 18.4712 21.5846 18.2017C21.6782 17.9073 21.7567 17.6139 21.8598 17.3223C22.0995 16.6433 22.3147 15.9443 22.5265 15.256C22.7275 14.603 22.9956 13.9842 23.2038 13.3341C23.4373 12.6048 23.6465 11.8687 23.8796 11.1399C24.0959 10.4642 24.3003 9.78057 24.5599 9.12039C24.8125 8.47815 24.9319 7.80309 25.2136 7.16954C25.7582 5.94428 26.3439 4.73647 26.8307 3.48884C27.1181 2.75265 27.4958 2.02072 27.6958 1.25549C27.7878 0.905657 28.1028 0.162298 27.5196 0.0897832ZM7.78031 11.9646C7.56561 11.8839 7.4254 11.8111 7.23514 11.6959C7.03531 11.5748 6.78622 11.5489 6.57031 11.4587C5.66306 11.0794 4.71834 10.8108 3.75438 10.6148C3.25492 10.5132 2.74163 10.5233 2.24185 10.4298C2.15227 10.413 2.06308 10.3943 1.97394 10.3758C2.06422 10.3481 2.15298 10.3206 2.23687 10.2904C2.69192 10.1269 3.09239 9.9093 3.56549 9.80332C4.37442 9.62209 5.14594 9.22828 5.88563 8.87424C6.30661 8.67278 6.7936 8.60595 7.2352 8.45928C7.44202 8.39065 7.63249 8.29008 7.83664 8.2162C8.05413 8.13739 8.28666 8.10535 8.50754 8.03715C8.92168 7.90918 9.30805 7.70766 9.70103 7.52802C10.1936 7.30293 10.7179 7.16052 11.2191 6.95566C12.0878 6.60053 12.9422 6.20738 13.8147 5.86067C14.6566 5.52626 15.5388 5.31238 16.3529 4.91059C16.7828 4.69841 17.2287 4.56043 17.6798 4.40255C18.1667 4.23209 18.6324 4.00525 19.1125 3.81675C19.9491 3.48819 20.7551 3.09526 21.6003 2.79438C22.0365 2.63923 22.4863 2.52794 22.9188 2.36279C23.3492 2.19851 23.7768 2.04046 24.2121 1.89538C24.2059 1.90008 24.1997 1.90418 24.1936 1.909C23.9114 2.12829 23.5843 2.25992 23.2867 2.45548C22.9674 2.66521 22.6799 2.91671 22.3736 3.14399C22.1114 3.33835 21.8318 3.50826 21.5729 3.70655C21.2789 3.9317 20.9871 4.17823 20.6853 4.39096C20.3994 4.59254 20.1646 4.84114 19.8702 5.03249C19.5318 5.2525 19.1847 5.45867 18.84 5.66888C18.5659 5.836 18.2861 5.99799 18.0332 6.19639C17.7553 6.41432 17.4839 6.56044 17.1858 6.7414C16.9401 6.89037 16.6739 6.98962 16.4284 7.13783C16.084 7.3458 15.7609 7.58746 15.4168 7.79691C14.7894 8.17879 14.2098 8.6293 13.5714 8.99466C13.2661 9.16933 12.9391 9.31261 12.6468 9.50806C12.3645 9.6969 12.0336 9.75295 11.7592 9.94878C11.1404 10.3904 10.5786 10.9029 9.97003 11.3534C9.65246 11.5884 9.32106 11.7886 9.01421 12.0408C8.85524 12.1715 8.69938 12.3017 8.56463 12.4579C8.38641 12.201 8.06518 12.0716 7.78031 11.9646ZM23.6434 2.89232C23.5967 2.93733 23.5517 2.98405 23.5085 3.03237C23.5002 3.04183 23.4941 3.05168 23.4874 3.06136C23.242 3.23822 22.9938 3.41097 22.7449 3.58198C22.9319 3.43049 23.115 3.27458 23.3037 3.12474C23.4122 3.03872 23.5268 2.96374 23.6434 2.89232ZM9.70917 21.1784C9.63305 21.5222 9.55003 21.8699 9.47697 22.2171C9.45313 22.0787 9.43339 21.9396 9.42272 21.7993C9.37777 21.2094 9.24849 20.6508 9.13824 20.0717C9.02313 19.4671 8.99764 18.8646 8.90932 18.2587C8.85491 17.8853 8.83654 17.5187 8.81406 17.1427C8.7929 16.7872 8.68604 16.4514 8.67297 16.0937C8.65935 15.7223 8.6127 15.4079 8.55074 15.0446C8.53719 14.963 8.5267 14.8809 8.5193 14.7985C8.57781 14.4807 8.63059 14.1699 8.65005 13.8342C8.66531 13.5701 8.66482 13.3067 8.67532 13.043C8.67647 13.013 8.67805 12.9845 8.67953 12.9566C8.80755 12.8787 8.92644 12.783 9.04938 12.6913C9.36973 12.4523 9.67614 12.2078 10.02 12.0032C10.6293 11.6404 11.1487 11.1113 11.7254 10.6953C11.8507 10.6049 11.9679 10.496 12.0969 10.412C12.2486 10.3132 12.4254 10.2882 12.5901 10.2177C12.8635 10.1006 13.1078 9.90219 13.373 9.76318C14.0537 9.40629 14.6705 8.97448 15.31 8.55252C15.9188 8.15079 16.5303 7.73468 17.1873 7.42274C17.7672 7.1474 18.2331 6.73763 18.7721 6.39999C19.148 6.16451 19.5678 5.94997 19.9589 5.70448C18.5939 6.88031 17.3501 8.18163 16.0759 9.45644C15.4272 10.1054 14.7423 10.7089 14.1033 11.3652C13.4503 12.0359 12.6891 12.5886 12.037 13.2565C11.5273 13.7786 10.9121 14.3359 10.7757 15.0812C10.6945 15.5248 10.5716 15.9555 10.513 16.4038C10.4472 16.9075 10.4083 17.4141 10.3538 17.9191C10.2345 19.0243 9.94881 20.0952 9.70917 21.1784ZM26.8151 1.80318C26.5666 2.40375 26.3433 3.03216 26.0485 3.61036C25.7604 4.17549 25.5576 4.79548 25.3007 5.378C25.0427 5.9631 24.7356 6.52522 24.4855 7.11387C24.2423 7.68644 24.1328 8.29484 23.9004 8.86959C23.6531 9.48127 23.4606 10.1119 23.2485 10.7364C23.0183 11.4147 22.8352 12.1062 22.6011 12.7835C22.4975 13.0837 22.4161 13.3948 22.2967 13.6889C22.1748 13.9891 22.0284 14.2695 21.9318 14.5803C21.7165 15.2729 21.4816 15.9584 21.2642 16.6506C21.1612 16.9786 21.0248 17.2978 20.9359 17.6294C20.8915 17.7953 20.8412 17.9564 20.7899 18.1199C20.7826 18.1434 20.7766 18.1681 20.7714 18.1934C20.0616 17.7285 19.2593 17.5017 18.4189 17.2816C18.1401 17.2086 17.8347 17.1631 17.5664 17.0598C17.3375 16.9717 17.1226 16.8391 16.8939 16.7458C16.3946 16.5423 15.9087 16.3017 15.4209 16.0729C15.242 15.989 15.1055 15.8493 14.9169 15.7822C14.6642 15.6922 14.4413 15.612 14.198 15.4926C13.7224 15.2592 13.229 15.0026 12.7156 14.866C12.4176 14.7867 12.0236 14.5909 11.7951 14.9142C11.6987 15.0505 11.6594 15.2752 11.6084 15.4313C11.5259 15.6835 11.4826 15.9221 11.5088 16.1877C11.5147 16.2469 11.5436 16.297 11.5841 16.3347C11.5329 16.6043 11.4795 16.8738 11.4429 17.1463C11.3924 17.5225 11.2238 17.95 11.3101 18.328C11.3339 18.4316 11.5105 18.4398 11.5281 18.328C11.5961 17.8957 11.7417 17.5003 11.7846 17.059C11.8068 16.8308 11.8464 16.6004 11.8782 16.3695C11.911 16.3434 11.9362 16.3039 11.9466 16.247C11.9885 16.0179 12.075 15.8101 12.1858 15.606C12.189 15.6 12.2103 15.5683 12.236 15.5286C12.3731 15.6143 12.5562 15.656 12.6987 15.7155C12.9358 15.8146 13.1669 15.9281 13.3969 16.0429C13.7911 16.2396 14.1692 16.428 14.5752 16.5882C14.6238 16.6073 14.6688 16.6322 14.7126 16.6592C14.6527 16.6709 14.5978 16.7008 14.5555 16.7448C14.2181 17.0931 13.9167 17.5439 13.6769 17.9682C13.3604 18.5275 12.9859 19.0519 12.5596 19.5328C12.1363 20.0108 11.687 20.4657 11.2626 20.9436C10.864 21.3923 10.5854 21.9127 10.2138 22.3775C10.1316 22.4804 10.0461 22.5805 9.95718 22.6776C10.0259 22.3519 10.1086 22.0278 10.1808 21.703C10.3961 20.7369 10.6791 19.7859 10.8561 18.8114C11.0224 17.8947 11.0232 16.9403 11.2448 16.0353C11.3351 15.6667 11.3862 15.2006 11.5697 14.8678C11.7591 14.5242 12.1141 14.2423 12.3755 13.951C12.9745 13.2834 13.7254 12.7652 14.3608 12.1324C15.006 11.49 15.674 10.8818 16.3174 10.2381C17.6626 8.89223 18.9663 7.48306 20.4231 6.25737C20.8025 5.93827 21.2091 5.63131 21.5623 5.28383C21.8651 4.9859 22.2316 4.76196 22.5675 4.49902C22.9664 4.1867 23.3661 3.87149 23.7266 3.51515C23.7507 3.49147 23.775 3.46943 23.7991 3.44663C23.8259 3.43343 23.8503 3.41591 23.8714 3.39478C24.393 2.87154 25.1236 2.64054 25.6889 2.17827C26.1806 1.77616 26.6036 1.30914 27.1244 0.963625C27.0335 1.24882 26.9297 1.52635 26.8151 1.80318Z" fill="white"/>
<path d="M5.66655 15.2354C5.3299 15.3234 5.17136 15.6665 4.99265 15.9347C4.79523 16.231 4.50921 16.487 4.57921 16.8714C4.62214 17.1068 4.96158 17.1233 5.07161 16.9357C5.14057 16.818 5.1829 16.6896 5.25558 16.5733C5.33701 16.4431 5.43019 16.3232 5.50118 16.1865C5.6274 15.943 5.78599 15.7092 5.88448 15.4532C5.93474 15.3222 5.78664 15.2041 5.66655 15.2354ZM4.29555 18.2312C4.26356 18.1959 4.19307 18.193 4.16173 18.2312C3.89453 18.5562 3.80884 18.9496 3.66786 19.3381C3.5482 19.6674 3.44709 20.132 3.61727 20.4649C3.65867 20.546 3.78046 20.5989 3.86806 20.567C4.0453 20.5024 4.12744 20.3838 4.15178 20.1971C4.16633 20.085 4.13516 19.9713 4.13794 19.8592C4.14183 19.709 4.19197 19.5731 4.229 19.4297C4.30195 19.1471 4.52906 18.4884 4.29555 18.2312ZM4.60754 23.5902C4.49778 23.2531 4.39946 22.7039 4.13494 22.4559C4.09966 22.4228 4.04498 22.4217 4.00965 22.4559C3.69553 22.7617 3.85226 23.3313 3.93429 23.7034C3.9922 23.966 4.06483 24.2259 4.1998 24.4609C4.35035 24.7231 4.53464 24.8481 4.76526 25.0299C4.85483 25.1004 4.96552 25.0535 4.97886 24.9414C5.03618 24.4649 4.75175 24.0329 4.60754 23.5902ZM8.13386 27.2352C7.91746 27.1269 7.74728 26.9329 7.56419 26.7774C7.37355 26.6157 7.18264 26.4697 7.00567 26.2953C6.79425 26.087 6.23447 25.7336 5.92785 25.8058C5.88596 25.8156 5.86616 25.8604 5.87447 25.8996C5.92631 26.1436 6.02852 26.3069 6.20604 26.4834C6.41024 26.6863 6.54854 26.925 6.76734 27.1181C7.16158 27.4658 7.61576 27.7726 8.13386 27.4936C8.22907 27.4423 8.23361 27.2852 8.13386 27.2352ZM12.5297 27.348C12.2384 27.1176 11.8617 27.0894 11.5057 27.1581C11.0561 27.245 10.6209 27.2996 10.1685 27.3466C9.94306 27.3701 9.94706 27.6667 10.1685 27.6946C10.3463 27.7172 10.5213 27.8507 10.7016 27.8916C10.9242 27.9421 11.1474 27.967 11.375 27.9462C11.7053 27.916 12.2033 27.9289 12.4803 27.7316C12.5938 27.6507 12.664 27.4542 12.5297 27.348ZM16.6111 25.1704C16.3779 25.2591 16.1086 25.2664 15.8676 25.3601C15.6496 25.4448 15.4446 25.5842 15.2526 25.7157C15.0844 25.831 14.9727 26.0144 14.8127 26.1253C14.7455 26.1719 14.6592 26.1846 14.5973 26.2439C14.5423 26.2965 14.5193 26.3839 14.4704 26.4296C14.2972 26.5915 14.4851 26.8226 14.6812 26.7919C14.7574 26.7801 14.8347 26.7397 14.8947 26.7318C14.9965 26.7182 15.0775 26.7345 15.1835 26.7006C15.3882 26.635 15.5614 26.4861 15.7479 26.3825C15.9638 26.2626 16.1893 26.1457 16.3806 25.9871C16.5931 25.811 16.6671 25.6515 16.8007 25.4172C16.8677 25.2994 16.7541 25.116 16.6111 25.1704ZM20.8371 22.709C20.4271 22.4143 19.8603 22.5894 19.4375 22.7654C18.9501 22.9685 18.5672 23.3046 18.2457 23.7178C18.149 23.8422 18.2315 24.0999 18.4238 24.024C18.8485 23.8566 19.2755 23.6918 19.7044 23.5352C20.1014 23.3903 20.5477 23.3436 20.884 23.0736C21.011 22.9714 20.9452 22.7868 20.8371 22.709ZM24.5722 22.6361C24.2962 22.5285 24.0055 22.4564 23.7074 22.4746C23.3859 22.4941 23.1534 22.6456 22.8564 22.721C22.631 22.7782 22.6987 23.0857 22.9083 23.1047C23.4384 23.153 23.8824 23.2607 24.3678 23.49C24.711 23.6521 25.2271 23.9441 25.6168 23.7982C25.7011 23.7667 25.753 23.7037 25.7581 23.6128C25.786 23.1053 24.9405 22.7798 24.5722 22.6361ZM28.0233 24.6827C27.8878 24.5761 27.7485 24.5281 27.6034 24.4427C27.4784 24.3691 27.3786 24.2572 27.2523 24.1835C27.0512 24.0662 26.7749 24.3101 26.9181 24.5177C27.0045 24.643 27.037 24.79 27.1275 24.9148C27.2202 25.0424 27.3386 25.1459 27.4447 25.2615C27.6462 25.481 27.9674 25.8147 28.2979 25.6814C28.3819 25.6474 28.48 25.5864 28.4941 25.4851C28.543 25.1335 28.2809 24.8853 28.0233 24.6827ZM12.7001 18.0471C12.7008 17.922 12.7049 17.7979 12.6964 17.6727C12.6805 17.4352 12.3524 17.4392 12.33 17.6727C12.3049 17.9384 12.182 18.341 12.4321 18.529C12.4978 18.5784 12.6051 18.5534 12.6593 18.4997L12.6733 18.4858C12.7031 18.4563 12.7169 18.4163 12.7179 18.3757C12.7351 18.2731 12.6996 18.1494 12.7001 18.0471ZM13.3287 17.582C13.3014 17.3945 13.3151 17.1924 13.1385 17.0742C13.0584 17.0205 12.9362 17.0577 12.8906 17.1392L12.869 17.1687C12.8065 17.2323 12.8151 17.3187 12.8588 17.3778C12.8588 17.3974 12.8583 17.4171 12.8573 17.4367C12.8527 17.5199 12.8396 17.6015 12.8475 17.6849C12.8672 17.8902 13.0325 18.1872 13.2849 18.0693C13.4946 17.9712 13.3515 17.7379 13.3287 17.582ZM10.2179 13.7231C10.2241 13.5794 10.2071 13.4319 10.1915 13.2913C10.1836 13.2212 10.1725 13.1473 10.1436 13.0826C10.1312 13.0549 10.1205 13.033 10.101 13.0094C10.098 13.0058 10.095 13.0021 10.092 12.9984C10.0945 12.8169 9.81974 12.7434 9.77807 12.9402C9.76478 13.0032 9.75494 13.0619 9.77791 13.1232C9.79607 13.1715 9.82483 13.1935 9.8326 13.2383C9.86497 13.4207 9.79174 13.6291 9.80695 13.8154C9.82193 13.9991 10.0828 14.1085 10.1819 13.917C10.1894 13.9026 10.1958 13.8859 10.2017 13.8684L10.2023 13.8689L10.2029 13.8647C10.2173 13.8206 10.2244 13.7698 10.2179 13.7231ZM10.921 12.7249C10.8957 12.5173 10.8204 12.3386 10.6024 12.2802C10.4058 12.2275 10.3304 12.4985 10.4964 12.5826C10.4775 12.5701 10.5039 12.5677 10.5051 12.5869C10.509 12.5885 10.5122 12.5907 10.5164 12.5922C10.5115 12.5905 10.5086 12.5889 10.5051 12.5872C10.5052 12.5889 10.5057 12.5901 10.5054 12.5921C10.5004 12.6194 10.5099 12.6635 10.5097 12.6916C10.509 12.7643 10.5013 12.8372 10.4946 12.9095C10.4844 13.0182 10.4615 13.1506 10.5275 13.246C10.624 13.3858 10.8074 13.3859 10.904 13.246C10.9931 13.117 10.9382 12.8666 10.921 12.7249Z" fill="white"/>
<path d="M10.4964 12.5827C10.4986 12.5842 10.5015 12.5857 10.5051 12.5874V12.5869C10.5022 12.5856 10.4993 12.5842 10.4964 12.5827ZM11.3741 12.2598C11.3039 12.1947 11.1943 12.1905 11.1243 12.2598L11.066 12.3175C11.001 12.3817 11.0091 12.4705 11.0531 12.5328C11.0418 12.5626 11.0291 12.593 11.0192 12.6219C10.9815 12.7313 10.946 12.8757 11.0206 12.9779C11.0942 13.0784 11.223 13.1064 11.32 13.0164C11.4153 12.9281 11.4388 12.7673 11.4564 12.6372C11.4732 12.5133 11.4727 12.3511 11.3741 12.2598ZM12.1605 12.1378L12.1458 12.103C12.1446 12.1001 12.1433 12.0972 12.1418 12.0943C12.1419 12.0911 12.1418 12.0861 12.1405 12.0756C12.1378 12.0526 12.1307 12.0312 12.1265 12.0084C12.1253 12.0018 12.1184 11.9442 12.1214 11.9736C12.1094 11.8483 11.9843 11.7558 11.864 11.8259C11.7841 11.8726 11.7234 11.9426 11.6493 11.9827C11.5717 12.0246 11.5472 12.1319 11.5908 12.2061C11.6387 12.288 11.734 12.3021 11.8142 12.2646C11.8341 12.2553 11.8529 12.2443 11.8711 12.2324C11.9135 12.2832 11.9703 12.3196 12.0444 12.3253C12.1337 12.3324 12.1737 12.2412 12.1637 12.1689C12.1689 12.1892 12.1679 12.1788 12.1605 12.1378Z" fill="white"/>
</g>
<defs>
<clipPath id="clip0_1637_344">
<rect width="28" height="28" fill="white" transform="translate(0.5)"/>
</clipPath>
</defs>
</svg>
