<svg width="25" height="24" viewBox="0 0 25 24" fill="none" xmlns="http://www.w3.org/2000/svg">
<path fill-rule="evenodd" clip-rule="evenodd" d="M7.14844 13.2734C7.14844 12.7212 7.59616 12.2734 8.14844 12.2734H8.15741C8.7097 12.2734 9.15741 12.7212 9.15741 13.2734C9.15741 13.8257 8.7097 14.2734 8.15741 14.2734H8.14844C7.59616 14.2734 7.14844 13.8257 7.14844 13.2734ZM11.1439 13.2734C11.1439 12.7212 11.5916 12.2734 12.1439 12.2734H12.1529C12.7052 12.2734 13.1529 12.7212 13.1529 13.2734C13.1529 13.8257 12.7052 14.2734 12.1529 14.2734H12.1439C11.5916 14.2734 11.1439 13.8257 11.1439 13.2734ZM15.1394 13.2734C15.1394 12.7212 15.5871 12.2734 16.1394 12.2734H16.1484C16.7007 12.2734 17.1484 12.7212 17.1484 13.2734C17.1484 13.8257 16.7007 14.2734 16.1484 14.2734H16.1394C15.5871 14.2734 15.1394 13.8257 15.1394 13.2734ZM7.14844 17.2734C7.14844 16.7212 7.59616 16.2734 8.14844 16.2734H8.15741C8.7097 16.2734 9.15741 16.7212 9.15741 17.2734C9.15741 17.8257 8.7097 18.2734 8.15741 18.2734H8.14844C7.59616 18.2734 7.14844 17.8257 7.14844 17.2734ZM11.1439 17.2734C11.1439 16.7212 11.5916 16.2734 12.1439 16.2734H12.1529C12.7052 16.2734 13.1529 16.7212 13.1529 17.2734C13.1529 17.8257 12.7052 18.2734 12.1529 18.2734H12.1439C11.5916 18.2734 11.1439 17.8257 11.1439 17.2734Z" fill="#FF6F3C"/>
<path fill-rule="evenodd" clip-rule="evenodd" d="M7.76094 1.25C8.29942 1.25 8.73594 1.68754 8.73594 2.22727V3.20455H15.5609V2.22727C15.5609 1.68754 15.9974 1.25 16.5359 1.25C17.0744 1.25 17.5109 1.68754 17.5109 2.22727V3.20455H18.9734C20.5888 3.20455 21.8984 4.51717 21.8984 6.13636V19.8182C21.8984 21.4374 20.5888 22.75 18.9734 22.75H5.32344C3.70801 22.75 2.39844 21.4374 2.39844 19.8182V6.13636C2.39844 4.51717 3.70801 3.20455 5.32344 3.20455H6.78594V2.22727C6.78594 1.68754 7.22247 1.25 7.76094 1.25ZM19.9483 9.75H4.34839V19.8182C4.34839 20.3579 4.78491 20.7955 5.32339 20.7955H18.9733C19.5118 20.7955 19.9483 20.3579 19.9483 19.8182V9.75Z" fill="#FF6F3C"/>
</svg>
