<svg width="15" height="16" viewBox="0 0 15 16" fill="none" xmlns="http://www.w3.org/2000/svg">
<mask id="mask0_727_294" style="mask-type:luminance" maskUnits="userSpaceOnUse" x="0" y="0" width="15" height="16">
<path d="M0 0.953918H15V15.9539H0V0.953918Z" fill="white"/>
</mask>
<g mask="url(#mask0_727_294)">
<path d="M12.1875 3.29767H2.8125C2.03585 3.29767 1.40625 3.92727 1.40625 4.70392V13.1414C1.40625 13.9181 2.03585 14.5477 2.8125 14.5477H12.1875C12.9642 14.5477 13.5938 13.9181 13.5938 13.1414V4.70392C13.5938 3.92727 12.9642 3.29767 12.1875 3.29767Z" stroke="#FF6F3C" stroke-width="0.625" stroke-linejoin="round"/>
<path d="M8.67188 8.45392C9.0602 8.45392 9.375 8.13912 9.375 7.75079C9.375 7.36247 9.0602 7.04767 8.67188 7.04767C8.28355 7.04767 7.96875 7.36247 7.96875 7.75079C7.96875 8.13912 8.28355 8.45392 8.67188 8.45392Z" fill="#FF6F3C"/>
<path d="M11.0156 8.45392C11.404 8.45392 11.7188 8.13912 11.7188 7.75079C11.7188 7.36247 11.404 7.04767 11.0156 7.04767C10.6273 7.04767 10.3125 7.36247 10.3125 7.75079C10.3125 8.13912 10.6273 8.45392 11.0156 8.45392Z" fill="#FF6F3C"/>
<path d="M8.67188 10.7977C9.0602 10.7977 9.375 10.4829 9.375 10.0945C9.375 9.70622 9.0602 9.39142 8.67188 9.39142C8.28355 9.39142 7.96875 9.70622 7.96875 10.0945C7.96875 10.4829 8.28355 10.7977 8.67188 10.7977Z" fill="#FF6F3C"/>
<path d="M11.0156 10.7977C11.404 10.7977 11.7188 10.4829 11.7188 10.0945C11.7188 9.70622 11.404 9.39142 11.0156 9.39142C10.6273 9.39142 10.3125 9.70622 10.3125 10.0945C10.3125 10.4829 10.6273 10.7977 11.0156 10.7977Z" fill="#FF6F3C"/>
<path d="M3.98438 10.7977C4.3727 10.7977 4.6875 10.4829 4.6875 10.0945C4.6875 9.70622 4.3727 9.39142 3.98438 9.39142C3.59605 9.39142 3.28125 9.70622 3.28125 10.0945C3.28125 10.4829 3.59605 10.7977 3.98438 10.7977Z" fill="#FF6F3C"/>
<path d="M6.32812 10.7977C6.71645 10.7977 7.03125 10.4829 7.03125 10.0945C7.03125 9.70622 6.71645 9.39142 6.32812 9.39142C5.9398 9.39142 5.625 9.70622 5.625 10.0945C5.625 10.4829 5.9398 10.7977 6.32812 10.7977Z" fill="#FF6F3C"/>
<path d="M3.98438 13.1414C4.3727 13.1414 4.6875 12.8266 4.6875 12.4383C4.6875 12.05 4.3727 11.7352 3.98438 11.7352C3.59605 11.7352 3.28125 12.05 3.28125 12.4383C3.28125 12.8266 3.59605 13.1414 3.98438 13.1414Z" fill="#FF6F3C"/>
<path d="M6.32812 13.1414C6.71645 13.1414 7.03125 12.8266 7.03125 12.4383C7.03125 12.05 6.71645 11.7352 6.32812 11.7352C5.9398 11.7352 5.625 12.05 5.625 12.4383C5.625 12.8266 5.9398 13.1414 6.32812 13.1414Z" fill="#FF6F3C"/>
<path d="M8.67188 13.1414C9.0602 13.1414 9.375 12.8266 9.375 12.4383C9.375 12.05 9.0602 11.7352 8.67188 11.7352C8.28355 11.7352 7.96875 12.05 7.96875 12.4383C7.96875 12.8266 8.28355 13.1414 8.67188 13.1414Z" fill="#FF6F3C"/>
<path fill-rule="evenodd" clip-rule="evenodd" d="M3.75 1.89142C3.49112 1.89142 3.28125 2.10129 3.28125 2.36017V3.29767C3.28125 3.55655 3.49112 3.76642 3.75 3.76642C4.00888 3.76642 4.21875 3.55655 4.21875 3.29767V2.36017C4.21875 2.10129 4.00888 1.89142 3.75 1.89142ZM11.25 1.89142C10.9911 1.89142 10.7812 2.10129 10.7812 2.36017V3.29767C10.7812 3.55655 10.9911 3.76642 11.25 3.76642C11.5089 3.76642 11.7188 3.55655 11.7188 3.29767V2.36017C11.7188 2.10129 11.5089 1.89142 11.25 1.89142Z" fill="#FF6F3C"/>
<path d="M13.5938 6.11017H1.40625V5.17267H13.5938V6.11017Z" fill="#FF6F3C"/>
</g>
</svg>
