<svg width="24" height="24" viewBox="0 0 24 24" fill="none" xmlns="http://www.w3.org/2000/svg">
<path d="M10.0018 3C7.05546 3.03208 5.41108 3.21929 4.3185 4.31188C3 5.63037 3 7.75248 3 11.9966C3 16.2409 3 18.363 4.3185 19.6815C5.637 21 7.75911 21 12.0033 21C16.2475 21 18.3696 21 19.6881 19.6815C20.7809 18.5887 20.9679 16.9438 21 13.9963" stroke="#FF6F3C" stroke-width="1.5" stroke-linecap="round" stroke-linejoin="round"/>
<path d="M14 3H18C19.4142 3 20.1213 3 20.5607 3.43934C21 3.87868 21 4.58579 21 6V10M20 4L11 13" stroke="#FF6F3C" stroke-width="1.5" stroke-linecap="round" stroke-linejoin="round"/>
</svg>
