<svg width="25" height="24" viewBox="0 0 25 24" fill="none" xmlns="http://www.w3.org/2000/svg">
<path d="M6.14844 18C4.90371 18.396 4.14844 19.184 4.14844 19.7537C4.14844 20.9943 7.73016 22 12.1484 22C16.5667 22 20.1484 20.9943 20.1484 19.7537C20.1484 19.184 19.3931 18.396 18.1484 18" stroke="#FF6F3C" stroke-width="1.5" stroke-linecap="round" stroke-linejoin="round"/>
<path d="M14.6484 9C14.6484 10.3807 13.5291 11.5 12.1484 11.5C10.7677 11.5 9.64844 10.3807 9.64844 9C9.64844 7.61929 10.7677 6.5 12.1484 6.5C13.5291 6.5 14.6484 7.61929 14.6484 9Z" stroke="#FF6F3C" stroke-width="1.5" stroke-linecap="round" stroke-linejoin="round"/>
<path d="M19.1484 9.2C19.1484 13.9809 14.0463 17.0126 12.5538 17.7971C12.2969 17.9322 11.9999 17.9322 11.743 17.7971C10.2505 17.0126 5.14844 13.9809 5.14844 9.2C5.14844 5.22355 8.28245 2 12.1484 2C16.0144 2 19.1484 5.22355 19.1484 9.2Z" stroke="#FF6F3C" stroke-width="1.5" stroke-linecap="round" stroke-linejoin="round"/>
</svg>
