<svg width="25" height="25" viewBox="0 0 25 25" fill="none" xmlns="http://www.w3.org/2000/svg">
<path opacity="0.4" d="M22.1887 15.4339L21.5661 14.8113C21.151 14.3962 20.478 14.3962 20.0629 14.8113L16.7141 18.1601C16.269 18.6052 15.9656 19.1722 15.8421 19.7895L15.5 21.5L17.2105 21.1579C17.8278 21.0344 18.3948 20.731 18.8399 20.2859L22.1887 16.9371C22.6038 16.522 22.6038 15.849 22.1887 15.4339Z" fill="#A3A3A3"/>
<path opacity="0.4" d="M5.83333 3.50001C8.29379 3.49657 10.6685 4.38709 12.5 6V21.5C10.6685 19.8871 8.29379 18.9966 5.83333 19C4.27132 19 3.49032 19 3.14526 18.7792C2.9381 18.6466 2.85346 18.5619 2.72086 18.3547C2.5 18.0097 2.5 17.3941 2.5 16.1629V6.90322C2.5 5.47543 2.5 4.76154 3.04874 4.18286C3.59748 3.60418 4.15923 3.57432 5.28272 3.5146C5.465 3.50491 5.64859 3.50001 5.83333 3.50001Z" fill="#A3A3A3"/>
<path d="M5.83333 3.50001C8.29379 3.49657 10.6685 4.38709 12.5 6V21.5C10.6685 19.8871 8.29379 18.9966 5.83333 19C4.27132 19 3.49032 19 3.14526 18.7792C2.9381 18.6466 2.85346 18.5619 2.72086 18.3547C2.5 18.0097 2.5 17.3941 2.5 16.1629V6.90322C2.5 5.47543 2.5 4.76154 3.04874 4.18286C3.59748 3.60418 4.15923 3.57432 5.28272 3.5146C5.465 3.50491 5.64858 3.50001 5.83333 3.50001Z" stroke="#A3A3A3" stroke-width="1.5" stroke-linecap="round" stroke-linejoin="round"/>
<path d="M12.5 21.5V6C14.3315 4.38709 16.7062 3.49657 19.1667 3.50001C19.3514 3.50001 19.535 3.50491 19.7173 3.5146C20.8408 3.57432 21.4025 3.60418 21.9513 4.18286C22.5 4.76154 22.5 5.47543 22.5 6.90322V12" stroke="#A3A3A3" stroke-width="1.5" stroke-linecap="round" stroke-linejoin="round"/>
<path d="M22.1887 15.4339L21.5661 14.8113C21.151 14.3962 20.478 14.3962 20.0629 14.8113L16.7141 18.1601C16.269 18.6052 15.9656 19.1722 15.8421 19.7895L15.5 21.5L17.2105 21.1579C17.8278 21.0344 18.3948 20.731 18.8399 20.2859L22.1887 16.9371C22.6038 16.522 22.6038 15.849 22.1887 15.4339Z" stroke="#A3A3A3" stroke-width="1.5" stroke-linecap="round" stroke-linejoin="round"/>
</svg>
