<svg width="25" height="25" viewBox="0 0 25 25" fill="none" xmlns="http://www.w3.org/2000/svg">
<path fill-rule="evenodd" clip-rule="evenodd" d="M14.0476 3.75C15.8866 3.74999 17.3308 3.74998 18.4694 3.8786C19.6316 4.00988 20.574 4.28362 21.3574 4.90228C21.5919 5.08749 21.8093 5.29205 22.007 5.5138C22.6732 6.26101 22.9707 7.16669 23.1124 8.27785C23.1287 8.4057 23.1368 8.46963 23.1222 8.52578C23.0987 8.61553 23.0299 8.69375 22.9438 8.72835C22.89 8.75 22.8226 8.75 22.6878 8.75H2.31224C2.17747 8.75 2.11007 8.75 2.05622 8.72835C1.97015 8.69375 1.90128 8.61553 1.87784 8.52578C1.86318 8.46963 1.87133 8.4057 1.88764 8.27785C2.02933 7.16669 2.32682 6.26101 2.99299 5.5138C3.19069 5.29205 3.40812 5.08749 3.64264 4.90228C4.42602 4.28362 5.36843 4.00988 6.53059 3.8786C7.66918 3.74998 9.11347 3.74999 10.9525 3.75H14.0476ZM23.25 12.5527C23.25 14.2768 23.25 15.6427 23.1124 16.7222C22.9707 17.8333 22.6732 18.739 22.007 19.4862C21.8093 19.7079 21.5919 19.9125 21.3574 20.0977C20.574 20.7164 19.6316 20.9901 18.4694 21.1214C17.3308 21.25 15.8866 21.25 14.0475 21.25H10.9525C9.11345 21.25 7.66917 21.25 6.53058 21.1214C5.36842 20.9901 4.426 20.7164 3.64263 20.0977C3.40811 19.9125 3.19068 19.7079 2.99298 19.4862C2.32681 18.739 2.02932 17.8333 1.88763 16.7222C1.74998 15.6427 1.74999 14.2767 1.75 12.5527V12.4473C1.75 11.8715 1.74999 11.3357 1.75512 10.8371C1.75795 10.5614 1.75937 10.4236 1.84704 10.3368C1.93472 10.25 2.07361 10.25 2.35139 10.25H22.6486C22.9264 10.25 23.0653 10.25 23.153 10.3368C23.2406 10.4236 23.2421 10.5614 23.2449 10.8371C23.25 11.3355 23.25 11.8712 23.25 12.4467V12.5527ZM10.75 16.5C10.75 16.0858 11.0858 15.75 11.5 15.75H13C13.4142 15.75 13.75 16.0858 13.75 16.5C13.75 16.9142 13.4142 17.25 13 17.25H11.5C11.0858 17.25 10.75 16.9142 10.75 16.5ZM16 15.75C15.5858 15.75 15.25 16.0858 15.25 16.5C15.25 16.9142 15.5858 17.25 16 17.25H19.5C19.9142 17.25 20.25 16.9142 20.25 16.5C20.25 16.0858 19.9142 15.75 19.5 15.75H16Z" fill="#FF6F3C"/>
</svg>
