<svg width="18" height="18" viewBox="0 0 18 18" fill="none" xmlns="http://www.w3.org/2000/svg">
<path d="M5.25 6.375L7.45652 7.67955C8.7429 8.44012 9.2571 8.44012 10.5435 7.67955L12.75 6.375" stroke="#A5ACA9" stroke-width="1.5" stroke-linecap="round" stroke-linejoin="round"/>
<path d="M1.51182 10.1067C1.56086 12.4058 1.58537 13.5554 2.43372 14.407C3.28206 15.2586 4.46275 15.2882 6.82413 15.3476C8.27948 15.3842 9.72053 15.3842 11.1759 15.3476C13.5373 15.2882 14.7179 15.2586 15.5663 14.407C16.4147 13.5554 16.4392 12.4058 16.4882 10.1067C16.504 9.36745 16.504 8.63252 16.4882 7.89332C16.4392 5.59415 16.4147 4.44457 15.5663 3.593C14.7179 2.74142 13.5373 2.71176 11.1759 2.65243C9.72053 2.61586 8.27948 2.61586 6.82412 2.65242C4.46275 2.71175 3.28206 2.74141 2.43372 3.59299C1.58537 4.44456 1.56085 5.59414 1.51182 7.89325C1.49606 8.63252 1.49606 9.36745 1.51182 10.1067Z" stroke="#A5ACA9" stroke-width="1.5" stroke-linejoin="round"/>
</svg>
