<svg width="41" height="40" viewBox="0 0 41 40" fill="none" xmlns="http://www.w3.org/2000/svg">
<mask id="mask0_957_427" style="mask-type:luminance" maskUnits="userSpaceOnUse" x="0" y="0" width="41" height="40">
<path d="M0.833008 0H40.833V40H0.833008V0Z" fill="white"/>
</mask>
<g mask="url(#mask0_957_427)">
<path d="M20.8326 29.7222C26.202 29.7222 30.5548 25.3694 30.5548 20C30.5548 14.6306 26.202 10.2778 20.8326 10.2778C15.4631 10.2778 11.1104 14.6306 11.1104 20C11.1104 25.3694 15.4631 29.7222 20.8326 29.7222Z" stroke="#757575" stroke-width="1.94444"/>
<path d="M25.8782 16.1852L23.8171 22.3686C23.7933 22.4402 23.7615 22.5081 23.7218 22.5723C23.6822 22.6365 23.6356 22.6952 23.5823 22.7486C23.5289 22.802 23.4701 22.8485 23.4059 22.8882C23.3417 22.9278 23.2739 22.9596 23.2023 22.9835L17.0189 25.0445C16.9887 25.0547 16.9581 25.0632 16.927 25.0703C16.896 25.0774 16.8647 25.0829 16.8331 25.0868C16.8015 25.0908 16.7698 25.0932 16.7379 25.0941C16.7061 25.095 16.6743 25.0943 16.6426 25.092C16.6108 25.0898 16.5792 25.086 16.5478 25.0806C16.5165 25.0752 16.4854 25.0684 16.4547 25.06C16.424 25.0515 16.3938 25.0416 16.364 25.0302C16.3343 25.0189 16.3052 25.0061 16.2767 24.9918C16.2482 24.9776 16.2205 24.962 16.1936 24.945C16.1666 24.928 16.1406 24.9098 16.1154 24.8903C16.0902 24.8708 16.0661 24.8501 16.043 24.8281C16.0199 24.8062 15.9979 24.7833 15.977 24.7592C15.9562 24.7352 15.9365 24.7102 15.9181 24.6842C15.8997 24.6582 15.8826 24.6314 15.8668 24.6037C15.8511 24.576 15.8367 24.5477 15.8237 24.5186C15.8107 24.4895 15.7992 24.4599 15.7891 24.4297C15.7559 24.3299 15.7393 24.2274 15.7393 24.1222C15.7393 24.0171 15.7559 23.9146 15.7891 23.8148L17.8503 17.6315C17.8741 17.5599 17.9059 17.492 17.9456 17.4278C17.9852 17.3636 18.0318 17.3048 18.0851 17.2514C18.1385 17.1981 18.1973 17.1516 18.2615 17.1119C18.3257 17.0722 18.3936 17.0404 18.4651 17.0166L24.6485 14.9555C24.6787 14.9454 24.7093 14.9368 24.7404 14.9298C24.7714 14.9227 24.8027 14.9172 24.8343 14.9132C24.8659 14.9092 24.8976 14.9068 24.9295 14.9059C24.9613 14.9051 24.9931 14.9058 25.0248 14.908C25.0566 14.9103 25.0882 14.9141 25.1196 14.9194C25.151 14.9248 25.182 14.9317 25.2127 14.9401C25.2435 14.9485 25.2737 14.9584 25.3034 14.9698C25.3331 14.9812 25.3622 14.994 25.3907 15.0082C25.4192 15.0225 25.4469 15.0381 25.4738 15.055C25.5008 15.072 25.5269 15.0902 25.552 15.1097C25.5771 15.1293 25.6013 15.15 25.6244 15.1719C25.6475 15.1938 25.6695 15.2167 25.6904 15.2408C25.7112 15.2649 25.7309 15.2899 25.7493 15.3159C25.7677 15.3418 25.7848 15.3687 25.8006 15.3963C25.8163 15.424 25.8307 15.4524 25.8436 15.4814C25.8566 15.5105 25.8682 15.5401 25.8782 15.5704C25.9115 15.6701 25.9282 15.7726 25.9282 15.8778C25.9282 15.983 25.9115 16.0855 25.8782 16.1852ZM24.0336 15.5704L24.9559 15.8778L25.2634 16.8001L19.08 18.8612L18.7726 17.9389L19.6949 18.2464L17.6338 24.4297L16.7115 24.1222L16.404 23.1999L22.5874 21.1388L22.8948 22.0611L21.9725 21.7537L24.0336 15.5704Z" fill="#757575"/>
</g>
</svg>
