<svg width="14" height="15" viewBox="0 0 14 15" fill="none" xmlns="http://www.w3.org/2000/svg">
<g clip-path="url(#clip0_401_2238)">
<mask id="mask0_401_2238" style="mask-type:luminance" maskUnits="userSpaceOnUse" x="0" y="0" width="14" height="15">
<path d="M0 0.5H14V14.5H0V0.5Z" fill="white"/>
</mask>
<g mask="url(#mask0_401_2238)">
<path d="M2.625 9.25C2.625 8.68565 2.77686 8.08507 3.08058 7.44827C3.25455 7.08351 3.56942 6.55181 4.02519 5.85316C4.30596 5.42277 4.50944 5.09924 4.63565 4.88257C4.84083 4.53033 4.99943 4.2091 5.11146 3.91889C5.37966 3.22411 5.43059 2.5589 5.26425 1.92326C5.25698 1.89547 5.25249 1.86723 5.25078 1.83856C5.24907 1.80988 5.25017 1.78131 5.25408 1.75286C5.258 1.7244 5.26466 1.69659 5.27405 1.66945C5.28344 1.6423 5.29539 1.61633 5.3099 1.59154C5.32441 1.56674 5.34119 1.5436 5.36026 1.52211C5.37933 1.50063 5.40031 1.48121 5.4232 1.46385C5.44609 1.4465 5.47046 1.43155 5.4963 1.41899C5.52214 1.40644 5.54895 1.39652 5.57674 1.38925C5.61305 1.37975 5.64997 1.375 5.6875 1.375C6.23683 1.375 6.83502 1.55522 7.48207 1.91565C8.15117 2.28836 8.76391 2.79665 9.32029 3.44051C9.94315 4.16131 10.4297 4.98181 10.7799 5.90201C11.1766 6.94458 11.375 8.06058 11.375 9.25C11.375 10.4581 10.9479 11.4893 10.0936 12.3436C9.23932 13.1979 8.20813 13.625 7 13.625C5.79187 13.625 4.76068 13.1979 3.90641 12.3436C3.05214 11.4893 2.625 10.4581 2.625 9.25ZM3.5 9.25C3.5 10.2165 3.84171 11.0415 4.52513 11.7249C5.20854 12.4083 6.0335 12.75 7 12.75C7.9665 12.75 8.79146 12.4083 9.47487 11.7249C10.1583 11.0415 10.5 10.2165 10.5 9.25C10.5 8.16783 10.3207 7.15557 9.96208 6.21322C9.64847 5.38913 9.21385 4.6556 8.65823 4.01261C8.16927 3.44678 7.63528 3.00259 7.05626 2.68006C6.54157 2.39335 6.08531 2.25 5.6875 2.25V1.8125L6.11075 1.70174C6.32474 2.51951 6.26374 3.36359 5.92775 4.23399C5.79898 4.56757 5.62031 4.93057 5.39174 5.32298C5.2581 5.5524 5.04687 5.88849 4.75804 6.33124C4.32349 6.99735 4.0276 7.49525 3.87035 7.82495C3.62345 8.34262 3.5 8.81763 3.5 9.25Z" fill="#FF7E45"/>
<path d="M9.1875 10.5625C9.1875 11.4131 8.96571 12.0748 8.52214 12.5474C8.12165 12.9741 7.61427 13.1875 7 13.1875C6.38574 13.1875 5.87836 12.9741 5.47786 12.5474C5.03429 12.0748 4.8125 11.4131 4.8125 10.5625C4.8125 10.1708 4.87438 9.77874 4.99815 9.38641C5.06902 9.16176 5.19195 8.85952 5.36695 8.47967C5.51846 8.15083 5.61538 7.91078 5.65774 7.75949C5.7191 7.54033 5.73159 7.33529 5.69523 7.14436C5.68985 7.11614 5.68728 7.08767 5.68751 7.05894C5.68775 7.03022 5.69078 7.00179 5.69661 6.97366C5.70245 6.94554 5.71097 6.91825 5.72218 6.8918C5.73339 6.86535 5.74707 6.84024 5.76322 6.81649C5.77937 6.79273 5.79769 6.77078 5.81817 6.75064C5.83864 6.73049 5.86089 6.71253 5.8849 6.69677C5.90892 6.681 5.93424 6.66773 5.96087 6.65696C5.98749 6.64618 6.01492 6.6381 6.04314 6.63273C6.07018 6.62758 6.09747 6.625 6.125 6.625C6.49433 6.625 6.87479 6.75873 7.2664 7.02619C7.60666 7.25858 7.92355 7.56878 8.21708 7.9568C8.50783 8.34116 8.7385 8.75266 8.90909 9.19133C9.0947 9.66859 9.1875 10.1256 9.1875 10.5625ZM8.3125 10.5625C8.3125 10.2351 8.23953 9.88375 8.09359 9.50848C7.95244 9.14552 7.76099 8.80426 7.51925 8.48469C7.28323 8.17269 7.03445 7.92738 6.77291 7.74875C6.5301 7.58292 6.31413 7.5 6.125 7.5V7.0625L6.55477 6.98064C6.61676 7.3061 6.59862 7.64436 6.50034 7.9954C6.44547 8.19136 6.33258 8.47483 6.16167 8.84581C6.00208 9.1922 5.8924 9.46014 5.83262 9.64965C5.73587 9.95632 5.6875 10.2606 5.6875 10.5625C5.6875 11.1823 5.8303 11.6443 6.11589 11.9486C6.34356 12.1912 6.63827 12.3125 7 12.3125C7.36173 12.3125 7.65644 12.1912 7.88411 11.9486C8.1697 11.6443 8.3125 11.1823 8.3125 10.5625Z" fill="#FF7E45"/>
</g>
</g>
<defs>
<clipPath id="clip0_401_2238">
<rect width="14" height="14" fill="white" transform="translate(0 0.5)"/>
</clipPath>
</defs>
</svg>
