<svg width="33" height="32" viewBox="0 0 33 32" fill="none" xmlns="http://www.w3.org/2000/svg">
<path d="M15.1807 4.16766C15.8679 2.8331 17.7982 2.83292 18.4854 4.16766L21.4268 9.88544C21.5491 10.1233 21.7781 10.2863 22.04 10.3278L28.4355 11.3366C29.9345 11.573 30.5181 13.3825 29.457 14.4362L24.8789 18.9821C24.7135 19.1465 24.6249 19.372 24.6338 19.6032L24.6436 19.7028L25.6533 26.0466C25.8867 27.5137 24.3366 28.6468 22.9785 27.9616L17.2109 25.0515L17.1201 25.0124C16.9348 24.9448 16.7313 24.9449 16.5459 25.0124L16.4551 25.0515L10.6865 27.9616C9.32842 28.6465 7.77939 27.5136 8.0127 26.0466L9.02148 19.7018C9.06348 19.4372 8.97515 19.17 8.78613 18.9821L4.20801 14.4362C3.14702 13.3826 3.73079 11.5732 5.22949 11.3366L11.625 10.3278C11.8872 10.2864 12.1159 10.1232 12.2383 9.88544L15.1807 4.16766Z" fill="url(#paint0_linear_1289_3445)" stroke="#FF6F3C"/>
<defs>
<linearGradient id="paint0_linear_1289_3445" x1="30.4994" y1="9.71339" x2="21.8028" y2="34.1439" gradientUnits="userSpaceOnUse">
<stop stop-color="#FAF3E0"/>
<stop offset="0.293269" stop-color="#FCD8A8"/>
<stop offset="0.75" stop-color="#F9A86F"/>
<stop offset="1" stop-color="#E07B39"/>
</linearGradient>
</defs>
</svg>
