<svg width="20" height="21" viewBox="0 0 20 21" fill="none" xmlns="http://www.w3.org/2000/svg">
<mask id="mask0_1272_2622" style="mask-type:luminance" maskUnits="userSpaceOnUse" x="0" y="0" width="20" height="21">
<path d="M0 0.5H20V20.5H0V0.5Z" fill="white"/>
</mask>
<g mask="url(#mask0_1272_2622)">
<path d="M16.25 3.625H3.75C2.71447 3.625 1.875 4.46447 1.875 5.5V15.5C1.875 16.5355 2.71447 17.375 3.75 17.375H16.25C17.2855 17.375 18.125 16.5355 18.125 15.5V5.5C18.125 4.46447 17.2855 3.625 16.25 3.625Z" stroke="#6B7280" stroke-width="1.25" stroke-linejoin="round"/>
<path d="M13.125 8.625C13.8154 8.625 14.375 8.06536 14.375 7.375C14.375 6.68464 13.8154 6.125 13.125 6.125C12.4346 6.125 11.875 6.68464 11.875 7.375C11.875 8.06536 12.4346 8.625 13.125 8.625Z" stroke="#6B7280" stroke-width="1.25"/>
<path fill-rule="evenodd" clip-rule="evenodd" d="M11.3076 13.9334L7.89208 10.5243C7.77488 10.4071 7.63363 10.3461 7.46833 10.3412C7.30303 10.3363 7.15854 10.3888 7.03488 10.4986L2.29029 14.717C2.03233 14.9464 1.63728 14.9232 1.40793 14.6652C1.17857 14.4072 1.20176 14.0122 1.45972 13.7828L6.20499 9.56379C6.57599 9.23441 7.00945 9.07707 7.50536 9.09176C8.00126 9.10646 8.42452 9.28907 8.77513 9.6396L12.1915 13.0496L13.126 12.115C13.4682 11.7721 13.8815 11.5894 14.3658 11.567C14.8502 11.5445 15.2788 11.6883 15.6516 11.9983L18.5253 14.3949C18.7904 14.616 18.8261 15.0101 18.605 15.2752C18.3839 15.5403 17.9898 15.576 17.7247 15.3549L14.8523 12.9594C14.728 12.8561 14.5852 12.8081 14.4238 12.8156C14.2623 12.8231 14.1244 12.8842 14.0099 12.9989L9.19195 17.8169C8.94788 18.0609 8.55214 18.0609 8.30807 17.8169C8.06399 17.5728 8.06399 17.1771 8.30807 16.933L11.3076 13.9334Z" fill="#6B7280"/>
</g>
</svg>
