<svg width="18" height="18" viewBox="0 0 18 18" fill="none" xmlns="http://www.w3.org/2000/svg">
<path fill-rule="evenodd" clip-rule="evenodd" d="M9.93832 1.17041C9.3531 0.859867 8.6469 0.859859 8.06168 1.17041C7.19189 1.63201 5.41039 2.46252 3.27696 2.83423C2.39982 2.98707 1.6875 3.74004 1.6875 4.69261V8.30445C1.6875 10.9306 3.02425 12.9298 4.48046 14.3243C5.93416 15.7164 7.563 16.5632 8.304 16.9076C8.7483 17.1141 9.2517 17.1141 9.696 16.9076C10.437 16.5632 12.0658 15.7164 13.5195 14.3243C14.9758 12.9298 16.3125 10.9306 16.3125 8.30445V4.69261C16.3125 3.74004 15.6001 2.98707 14.723 2.83423C12.5896 2.46252 10.8081 1.63201 9.93832 1.17041ZM8.74605 2.46595C8.90317 2.38258 9.0969 2.38258 9.25395 2.46595C9.99105 2.85711 11.334 3.49516 13.0042 3.94996L4.63876 12.3349C3.76948 11.242 3.15001 9.90375 3.15001 8.30452V4.69262C3.15001 4.50911 3.29401 4.31917 3.52744 4.2785C5.86947 3.87043 7.8033 2.96625 8.74605 2.46595Z" fill="#FF6F3C"/>
</svg>
