<svg width="19" height="19" viewBox="0 0 19 19" fill="none" xmlns="http://www.w3.org/2000/svg">
<path d="M17.3758 9.67493C17.3758 9.02743 17.3222 8.55493 17.2062 8.06494H9.66151V10.9874H14.09C14.0008 11.7137 13.5187 12.8074 12.4472 13.5424L12.4322 13.6402L14.8177 15.4513L14.9829 15.4674C16.5008 14.0937 17.3758 12.0724 17.3758 9.67493Z" fill="#4285F4"/>
<path d="M9.661 17.3752C11.8306 17.3752 13.652 16.6751 14.9824 15.4677L12.4467 13.5426C11.7681 14.0064 10.8574 14.3301 9.661 14.3301C7.53602 14.3301 5.73247 12.9564 5.08956 11.0576L4.99532 11.0655L2.51488 12.9467L2.48244 13.0351C3.80385 15.6076 6.51813 17.3752 9.661 17.3752Z" fill="#34A853"/>
<path d="M5.09003 11.0576C4.92039 10.5676 4.82221 10.0426 4.82221 9.5001C4.82221 8.95756 4.92039 8.43258 5.0811 7.94259L5.07661 7.83823L2.56507 5.92676L2.4829 5.96506C1.93828 7.03258 1.62578 8.23135 1.62578 9.5001C1.62578 10.7688 1.93828 11.9676 2.4829 13.0351L5.09003 11.0576Z" fill="#FBBC05"/>
<path d="M9.66104 4.66998C11.1699 4.66998 12.1878 5.30873 12.7682 5.84251L15.036 3.6725C13.6432 2.40375 11.8307 1.625 9.66104 1.625C6.51815 1.625 3.80385 3.39249 2.48244 5.96497L5.08065 7.94249C5.73249 6.04375 7.53605 4.66998 9.66104 4.66998Z" fill="#EB4335"/>
</svg>
