<svg width="33" height="32" viewBox="0 0 33 32" fill="none" xmlns="http://www.w3.org/2000/svg">
<path d="M14.185 5.62781C14.8065 4.38124 15.7736 3.45831 16.9964 3.45831V25.512C16.6975 25.513 16.443 25.5826 16.2879 25.6728L16.2857 25.6741L12.8043 27.752C11.4874 28.5401 10.0378 28.88 8.9756 28.0985C7.91788 27.3204 7.79847 25.835 8.1426 24.3355L8.96952 20.7305L8.97002 20.7281C9.00628 20.5625 8.99919 20.3059 8.91924 20.0243C8.83874 19.7408 8.71039 19.5232 8.59582 19.4077L5.7028 16.4907C4.7424 15.5223 4.20872 14.3321 4.57125 13.1874C4.93483 12.0394 6.05931 11.3797 7.40436 11.1537L11.1225 10.5309L11.1237 10.5307C11.26 10.507 11.4741 10.417 11.6955 10.2514C11.9174 10.0856 12.0655 9.90456 12.1279 9.776L12.1311 9.76959L14.1842 5.62944L14.185 5.62781Z" fill="url(#paint0_linear_1289_3452)"/>
<path d="M16.9961 3.95831C17.9378 3.95831 18.7698 4.67277 19.3516 5.85187L19.3525 5.85284L21.4062 9.99347V9.99445C21.5129 10.2141 21.7233 10.4531 21.9902 10.6517C22.2571 10.8501 22.5471 10.9832 22.7881 11.0237L26.5088 11.6468C27.7676 11.8583 28.6685 12.4484 28.9521 13.3382C29.2353 14.2274 28.8432 15.2317 27.9375 16.139L27.9355 16.1409L25.0449 19.056C24.8561 19.2465 24.6927 19.5463 24.5957 19.888C24.5005 20.2236 24.4799 20.5611 24.5352 20.8245V20.8255L24.5361 20.8284C24.5366 20.8306 24.5366 20.8331 24.5371 20.8353L24.5391 20.8421L25.3662 24.4476C25.7008 25.9108 25.5277 27.1129 24.7285 27.7005C23.9277 28.289 22.7325 28.088 21.4473 27.3226L17.96 25.2415C17.7175 25.0968 17.3716 25.012 17.002 25.012C16.6342 25.0121 16.2854 25.0956 16.0361 25.2405L16.0352 25.2415L16.0293 25.2444L12.5479 27.3226C11.2668 28.0892 10.0731 28.2854 9.27148 27.6956C8.47202 27.1071 8.29505 25.9068 8.62988 24.4476L9.45703 20.8421L9.45801 20.8353V20.8323C9.51531 20.5679 9.49659 20.227 9.40039 19.888C9.30339 19.5464 9.13998 19.2465 8.95117 19.056L6.05762 16.139C5.15751 15.2314 4.76638 14.2269 5.04785 13.3382C5.32979 12.4483 6.22817 11.8584 7.4873 11.6468L11.2051 11.0237H11.209C11.4432 10.9831 11.7296 10.8502 11.9951 10.6517C12.261 10.4528 12.4715 10.214 12.5781 9.99445L12.5771 9.99347L12.5791 9.98956L14.6318 5.85187L14.6328 5.85089C15.2204 4.67225 16.0551 3.95848 16.9961 3.95831Z" stroke="#FF6F3C"/>
<defs>
<linearGradient id="paint0_linear_1289_3452" x1="16.9964" y1="10.2565" x2="4.25664" y2="27.2751" gradientUnits="userSpaceOnUse">
<stop stop-color="#FAF3E0"/>
<stop offset="0.293269" stop-color="#FCD8A8"/>
<stop offset="0.75" stop-color="#F9A86F"/>
<stop offset="1" stop-color="#E07B39"/>
</linearGradient>
</defs>
</svg>
