<svg width="20" height="21" viewBox="0 0 20 21" fill="none" xmlns="http://www.w3.org/2000/svg">
<mask id="mask0_1272_2629" style="mask-type:luminance" maskUnits="userSpaceOnUse" x="0" y="0" width="20" height="21">
<path d="M0 0.5H20V20.5H0V0.5Z" fill="white"/>
</mask>
<g mask="url(#mask0_1272_2629)">
<path d="M9.99984 1.94145C7.6349 1.93454 5.61427 2.76518 3.93793 4.43338C2.2616 6.10157 1.42113 8.11813 1.41652 10.4831C1.41191 12.848 2.24452 14.8678 3.91434 16.5425C5.58416 18.2173 7.60154 19.0558 9.96648 19.0581C12.3314 19.0604 14.3505 18.2258 16.0235 16.5543C17.6966 14.8829 18.5332 12.8647 18.5332 10.4998C18.5378 8.13944 17.7068 6.12354 16.0402 4.45209C14.3736 2.78063 12.3602 1.94375 9.99984 1.94145ZM17.4998 10.4998C17.4998 12.5708 16.7676 14.3386 15.3031 15.8031C13.8387 17.2675 12.0709 17.9998 9.99984 17.9998C7.92877 17.9998 6.161 17.2675 4.69653 15.8031C3.23207 14.3386 2.49984 12.5708 2.49984 10.4998C2.49984 8.42872 3.23207 6.66095 4.69653 5.19648C6.161 3.73202 7.92877 2.99979 9.99984 2.99979C12.0709 2.99979 13.8387 3.73202 15.3031 5.19648C16.7676 6.66095 17.4998 8.42872 17.4998 10.4998Z" fill="#6B7280"/>
<path d="M7.33332 9.70794C7.69471 9.71708 8.00521 9.59587 8.26483 9.34431C8.52445 9.09275 8.65539 8.78621 8.65764 8.42472C8.65988 8.06322 8.53277 7.75508 8.2763 7.50031C8.01983 7.24554 7.71086 7.12048 7.34938 7.12513C6.9879 7.12977 6.68225 7.26274 6.43241 7.52403C6.18258 7.78531 6.06344 8.09662 6.07498 8.45794C6.08795 8.7992 6.21558 9.09018 6.45787 9.33086C6.70015 9.57155 6.99197 9.69724 7.33332 9.70794Z" fill="#6B7280"/>
<path d="M12.8664 9.70822C13.2423 9.73849 13.5688 9.62576 13.846 9.37002C14.1232 9.11428 14.2617 8.79785 14.2617 8.42072C14.2617 8.0436 14.1232 7.72717 13.846 7.47143C13.5688 7.21569 13.2423 7.10296 12.8664 7.13322C12.5076 7.13764 12.2047 7.26994 11.9576 7.53012C11.7105 7.79031 11.594 8.09968 11.6081 8.45822C11.6104 8.80408 11.7342 9.09887 11.9796 9.34262C12.2249 9.58636 12.5205 9.70823 12.8664 9.70822Z" fill="#6B7280"/>
<path d="M10.1583 14.125C9.27522 14.1073 8.44485 13.889 7.66723 13.4701C6.88961 13.0512 6.25054 12.4778 5.75 11.75C6.05423 12.7204 6.61223 13.512 7.424 14.1247C8.23577 14.7373 9.14999 15.0569 10.1667 15.0833C11.1926 15.0812 12.1153 14.7715 12.9347 14.1542C13.7542 13.5369 14.3065 12.7355 14.5917 11.75C14.1044 12.4988 13.4671 13.0841 12.6796 13.506C11.8921 13.9279 11.0517 14.1342 10.1583 14.125Z" fill="#6B7280"/>
</g>
</svg>
