<svg width="25" height="25" viewBox="0 0 25 25" fill="none" xmlns="http://www.w3.org/2000/svg">
<path opacity="0.4" d="M22.75 14.5V10.5C22.75 6.72876 22.75 4.84315 21.5784 3.67157C20.4069 2.5 18.5212 2.5 14.75 2.5H12.75C11.5802 2.5 10.5919 2.5 9.75 2.53496V22.465C10.5919 22.5 11.5802 22.5 12.75 22.5H14.75C18.5212 22.5 20.4069 22.5 21.5784 21.3284C22.75 20.1569 22.75 18.2712 22.75 14.5Z" fill="#A3A3A3"/>
<path d="M22.75 14.5V10.5C22.75 6.72876 22.75 4.84315 21.5784 3.67157C20.4069 2.5 18.5212 2.5 14.75 2.5H12.75C8.97876 2.5 7.09315 2.5 5.92157 3.67157C4.75 4.84315 4.75 6.72876 4.75 10.5V14.5C4.75 18.2712 4.75 20.1569 5.92157 21.3284C7.09315 22.5 8.97876 22.5 12.75 22.5H14.75C18.5212 22.5 20.4069 22.5 21.5784 21.3284C22.75 20.1569 22.75 18.2712 22.75 14.5Z" stroke="#A3A3A3" stroke-width="1.5"/>
<path d="M5.75 6.5H2.75M5.75 12.5H2.75M5.75 18.5H2.75" stroke="#A3A3A3" stroke-width="1.5" stroke-linecap="round" stroke-linejoin="round"/>
<path d="M18.25 7.5H14.25M16.25 11.5H14.25" stroke="#A3A3A3" stroke-width="1.5" stroke-linecap="round" stroke-linejoin="round"/>
<path d="M9.75 22.5V2.5" stroke="#A3A3A3" stroke-width="1.5" stroke-linecap="round" stroke-linejoin="round"/>
</svg>
