<svg width="18" height="18" viewBox="0 0 18 18" fill="none" xmlns="http://www.w3.org/2000/svg">
<path d="M4.5 13.5C3.56645 13.797 3 14.388 3 14.8153C3 15.7457 5.68629 16.5 9 16.5C12.3137 16.5 15 15.7457 15 14.8153C15 14.388 14.4335 13.797 13.5 13.5" stroke="white" stroke-width="1.5" stroke-linecap="round" stroke-linejoin="round"/>
<path d="M10.875 6.75C10.875 7.78552 10.0355 8.625 9 8.625C7.96448 8.625 7.125 7.78552 7.125 6.75C7.125 5.71447 7.96448 4.875 9 4.875C10.0355 4.875 10.875 5.71447 10.875 6.75Z" stroke="white" stroke-width="1.5" stroke-linecap="round" stroke-linejoin="round"/>
<path d="M14.25 6.9C14.25 10.4857 10.4234 12.7595 9.30405 13.3478C9.11138 13.4492 8.88862 13.4492 8.69595 13.3478C7.57657 12.7595 3.75 10.4857 3.75 6.9C3.75 3.91766 6.10051 1.5 9 1.5C11.8995 1.5 14.25 3.91766 14.25 6.9Z" stroke="white" stroke-width="1.5" stroke-linecap="round" stroke-linejoin="round"/>
</svg>
