<svg width="17" height="17" viewBox="0 0 17 17" fill="none" xmlns="http://www.w3.org/2000/svg">
<g clip-path="url(#clip0_512_340)">
<mask id="mask0_512_340" style="mask-type:luminance" maskUnits="userSpaceOnUse" x="0" y="0" width="17" height="17">
<path d="M0.5 0.5H16.5V16.5H0.5V0.5Z" fill="white"/>
</mask>
<g mask="url(#mask0_512_340)">
<path d="M11.0319 5.41365L10.2 4.09927L10.6225 3.83187L10.243 4.15741C10.153 4.05247 10.0511 4 9.9375 4H7.0625C6.94886 4 6.84703 4.05247 6.75701 4.15741L6.3775 3.83187L6.79999 4.09927L5.96812 5.41365C5.95526 5.43396 5.94101 5.45325 5.92538 5.4715C5.62361 5.82383 5.27348 6 4.875 6H3C2.86193 6 2.74408 6.04882 2.64645 6.14645C2.54882 6.24408 2.5 6.36193 2.5 6.5V12.5C2.5 12.6381 2.54882 12.7559 2.64645 12.8535C2.74408 12.9512 2.86193 13 3 13H14C14.1381 13 14.2559 12.9512 14.3536 12.8535C14.4512 12.7559 14.5 12.6381 14.5 12.5V6.5C14.5 6.36193 14.4512 6.24408 14.3536 6.14645C14.2559 6.04882 14.1381 6 14 6H12.1562C11.9436 6 11.7373 5.94754 11.5373 5.84262C11.3619 5.75056 11.2077 5.62685 11.0746 5.4715C11.059 5.45325 11.0447 5.43396 11.0319 5.41365ZM11.8769 4.87885L11.4544 5.14625L11.8341 4.821C11.9363 4.94033 12.0437 5 12.1562 5H14C14.4142 5 14.7678 5.14645 15.0607 5.43934C15.3536 5.73223 15.5 6.08579 15.5 6.5V12.5C15.5 12.9142 15.3536 13.2678 15.0607 13.5607C14.7678 13.8536 14.4142 14 14 14H3C2.58579 14 2.23223 13.8536 1.93934 13.5607C1.64645 13.2678 1.5 12.9142 1.5 12.5V6.5C1.5 6.08579 1.64645 5.73223 1.93934 5.43934C2.23223 5.14645 2.58579 5 3 5H4.875C4.96671 5 5.06366 4.94033 5.16587 4.821L5.54563 5.14625L5.12313 4.87885L5.95501 3.56448C5.96793 3.54406 5.98226 3.52468 5.99799 3.50634C6.28755 3.16878 6.64239 3 7.0625 3H9.9375C10.3576 3 10.7125 3.16878 11.002 3.50634C11.0177 3.52468 11.0321 3.54406 11.045 3.56448L11.8769 4.87885Z" fill="#22C55E"/>
<path d="M8.5 11.5C9.88071 11.5 11 10.3807 11 9C11 7.61929 9.88071 6.5 8.5 6.5C7.11929 6.5 6 7.61929 6 9C6 10.3807 7.11929 11.5 8.5 11.5Z" stroke="#22C55E"/>
<path fill-rule="evenodd" clip-rule="evenodd" d="M3.125 5.4375V4.75C3.125 4.71717 3.1282 4.68465 3.13461 4.65245C3.14101 4.62025 3.1505 4.58899 3.16306 4.55866C3.17562 4.52833 3.19103 4.49951 3.20926 4.47221C3.2275 4.44492 3.24823 4.41966 3.27145 4.39645C3.29466 4.37323 3.31992 4.3525 3.34721 4.33426C3.37451 4.31603 3.40333 4.30062 3.43366 4.28806C3.46399 4.2755 3.49525 4.26601 3.52745 4.25961C3.55965 4.2532 3.59217 4.25 3.625 4.25H4.375C4.40783 4.25 4.44035 4.2532 4.47255 4.25961C4.50475 4.26601 4.53601 4.2755 4.56634 4.28806C4.59667 4.30062 4.62549 4.31603 4.65279 4.33426C4.68008 4.3525 4.70534 4.37323 4.72855 4.39645C4.75177 4.41966 4.7725 4.44492 4.79073 4.47221C4.80897 4.49951 4.82437 4.52833 4.83694 4.55866C4.84951 4.58899 4.85899 4.62025 4.86539 4.65245C4.8718 4.68465 4.875 4.71717 4.875 4.75V5.4375C4.875 5.71364 4.65114 5.9375 4.375 5.9375C4.22566 5.9375 4.09162 5.87203 4 5.76823C3.90838 5.87203 3.77434 5.9375 3.625 5.9375C3.34886 5.9375 3.125 5.71364 3.125 5.4375Z" fill="#22C55E"/>
</g>
</g>
<defs>
<clipPath id="clip0_512_340">
<rect width="16" height="16" fill="white" transform="translate(0.5 0.5)"/>
</clipPath>
</defs>
</svg>
