<svg width="48" height="48" viewBox="0 0 48 48" fill="none" xmlns="http://www.w3.org/2000/svg">
<g clip-path="url(#clip0_1007_847)">
<path d="M24 0C10.7452 0 0 10.7452 0 24V24.036C0 37.2908 10.7092 48 23.964 48H24C37.2548 48 48 37.2908 48 24.036V24C48 10.7452 37.2908 0 24.036 0H24Z" fill="#EAF6F6"/>
<g clip-path="url(#clip1_1007_847)">
<mask id="mask0_1007_847" style="mask-type:luminance" maskUnits="userSpaceOnUse" x="10" y="10" width="28" height="28">
<path d="M10 10H38V38H10V10Z" fill="white"/>
</mask>
<g mask="url(#mask0_1007_847)">
<path d="M24 28.375C25.933 28.375 27.5 26.808 27.5 24.875C27.5 22.942 25.933 21.375 24 21.375C22.067 21.375 20.5 22.942 20.5 24.875C20.5 26.808 22.067 28.375 24 28.375Z" fill="#40B7B7"/>
<path d="M33.625 17.875H30.3984C30.2344 17.875 30.0309 17.7689 29.8723 17.6016L28.4538 15.3627C28.4425 15.3449 28.4307 15.3276 28.4182 15.3107C28.4057 15.2938 28.3925 15.2774 28.3788 15.2615C27.8888 14.69 27.2266 14.375 26.5156 14.375H21.4844C20.7734 14.375 20.1112 14.69 19.6212 15.2615C19.6075 15.2774 19.5943 15.2938 19.5818 15.3107C19.5693 15.3276 19.5575 15.3449 19.5462 15.3627L18.1277 17.6048C18.0062 17.7372 17.8356 17.8783 17.6562 17.8783V17.4408C17.6562 17.1992 17.5708 16.9929 17.4 16.8221C17.2291 16.6512 17.0229 16.5658 16.7812 16.5658H15.4688C15.2271 16.5658 15.0209 16.6512 14.85 16.8221C14.6792 16.9929 14.5938 17.1992 14.5938 17.4408V17.8783H14.375C13.6504 17.879 13.032 18.1356 12.5196 18.6479C12.0073 19.1603 11.7508 19.7787 11.75 20.5033V31C11.7508 31.7246 12.0073 32.343 12.5196 32.8554C13.032 33.3677 13.6504 33.6242 14.375 33.625H33.625C34.3496 33.6242 34.968 33.3677 35.4804 32.8554C35.9927 32.343 36.2492 31.7246 36.25 31V20.5C36.2492 19.7754 35.9927 19.157 35.4804 18.6446C34.968 18.1323 34.3496 17.8758 33.625 17.875ZM24 30.125C22.5503 30.125 21.3128 29.6124 20.2877 28.5873C19.2626 27.5622 18.75 26.3247 18.75 24.875C18.75 23.4253 19.2626 22.1878 20.2877 21.1627C21.3128 20.1376 22.5503 19.625 24 19.625C25.4497 19.625 26.6872 20.1376 27.7123 21.1627C28.7374 22.1878 29.25 23.4253 29.25 24.875C29.2483 26.3241 28.7352 27.5609 27.7106 28.5856C26.6859 29.6102 25.4491 30.1233 24 30.125Z" fill="#40B7B7"/>
</g>
</g>
</g>
<defs>
<clipPath id="clip0_1007_847">
<rect width="48" height="48" fill="white"/>
</clipPath>
<clipPath id="clip1_1007_847">
<rect width="28" height="28" fill="white" transform="translate(10 10)"/>
</clipPath>
</defs>
</svg>
