<svg width="17" height="17" viewBox="0 0 17 17" fill="none" xmlns="http://www.w3.org/2000/svg">
<path d="M13.7459 12.8758C13.5158 12.6458 13.3592 12.4941 13.2761 12.4206C13.2705 12.4158 13.2651 12.4108 13.2597 12.4057L11.4484 10.6868L11.872 10.2405L11.4643 10.7014C11.3676 10.6159 11.3004 10.5113 11.2627 10.3878C11.225 10.2643 11.2225 10.1401 11.2549 10.0151L11.8506 10.1701L11.2381 10.1104L11.9985 2.30175C11.9993 2.2933 12.0003 2.28488 12.0015 2.27648C11.996 2.31557 11.999 2.354 12.0105 2.39178C12.0219 2.42955 12.0408 2.46317 12.067 2.49265L12.5266 2.08345L12.0915 2.51859L11.3602 1.78728L11.7953 1.35213L12.3713 1.56875L9.97804 7.93271C9.88993 8.17878 9.71444 8.32735 9.45156 8.37842C9.18868 8.4295 8.96816 8.35507 8.79001 8.15513L9.24947 7.74574L8.82081 8.18727L5.46232 4.9267C5.3595 4.82999 5.28306 4.71226 5.23299 4.57351C5.18293 4.43475 5.16696 4.29218 5.18507 4.14579L5.79579 4.22135L5.18332 4.1616L5.40089 1.9315C5.40154 1.92487 5.40229 1.91826 5.40315 1.91166C5.40146 1.92463 5.40129 1.93539 5.40264 1.94396C5.40264 1.94396 5.40161 1.94063 5.39993 1.93649C5.39323 1.91996 5.38459 1.90639 5.37398 1.89579L4.86106 1.38286C4.95815 1.47996 5.07686 1.53469 5.21717 1.54706C5.3637 1.55998 5.4955 1.52351 5.61259 1.43765C5.6738 1.39276 5.71893 1.34411 5.74798 1.29169L4.34266 3.77816L3.80692 3.47536L4.37088 3.72163C4.30823 3.86511 4.22154 3.99221 4.11084 4.10291C4.00013 4.21362 3.87304 4.3003 3.72956 4.36295L3.48329 3.799L3.78552 4.33505L1.30904 5.73129C1.39967 5.68287 1.46899 5.5947 1.51699 5.46679C1.57074 5.32346 1.56807 5.18219 1.50897 5.04298C1.48301 4.98193 1.44951 4.93089 1.40847 4.88985L1.89583 5.3772C1.93303 5.41441 1.95892 5.43853 1.97348 5.44956C1.95848 5.43818 1.93641 5.42772 1.90728 5.41817C1.87686 5.40827 1.85071 5.40343 1.82884 5.40365C1.84107 5.40353 1.87362 5.40043 1.92649 5.39435L4.20615 5.17557C4.34293 5.15969 4.47984 5.17646 4.61686 5.2259C4.75388 5.27535 4.87274 5.3527 4.97343 5.45797L8.18212 8.81352C8.35718 8.99674 8.41842 9.21221 8.36582 9.45993C8.31321 9.70768 8.16978 9.87965 7.93551 9.97587C7.92984 9.9782 7.92415 9.98044 7.91841 9.9826L1.56861 12.3715L1.3519 11.7956L1.78705 11.3604L2.51155 12.0849L2.07641 12.5201L2.48546 12.0604C2.45603 12.0342 2.42249 12.0153 2.38482 12.0039C2.34711 11.9924 2.30875 11.9894 2.26975 11.9948C2.27814 11.9936 2.28654 11.9926 2.29495 11.9918L10.1085 11.2412L10.1674 11.8538L10.0396 11.2517C10.2034 11.2171 10.3639 11.2441 10.5214 11.3328C10.589 11.3709 10.6486 11.4158 10.7001 11.4673C10.704 11.4711 10.7078 11.4751 10.7116 11.4791L12.4031 13.2631C12.408 13.2682 12.4127 13.2733 12.4172 13.2785C12.4933 13.3644 12.6453 13.5213 12.8731 13.7491C13.4159 14.2918 13.9008 14.6459 14.3278 14.8114C14.589 14.9126 14.7602 14.9227 14.8413 14.8416C14.9221 14.7607 14.9121 14.5907 14.8113 14.3313C14.6458 13.9058 14.2907 13.4206 13.7459 12.8758ZM14.6162 12.0055C15.2829 12.6723 15.7303 13.2988 15.9584 13.8852C16.0893 14.2219 16.1421 14.536 16.1168 14.8277C16.0866 15.1772 15.9515 15.4719 15.7116 15.7118C15.4717 15.9518 15.1767 16.0869 14.8265 16.1171C14.5346 16.1423 14.2202 16.0896 13.8831 15.959C13.2948 15.7311 12.668 15.2845 12.0029 14.6194C11.7574 14.374 11.5884 14.199 11.4959 14.0945L11.9566 13.6865L11.51 14.1099L9.81841 12.3258L10.265 11.9024L9.82982 12.3376C9.9491 12.4568 10.1042 12.4962 10.2951 12.4558C10.2723 12.4606 10.2493 12.4641 10.2262 12.4663L2.41266 13.217L2.35384 12.6044L2.43793 13.214C2.29853 13.2332 2.16153 13.2224 2.02694 13.1814C1.8923 13.1406 1.77244 13.0733 1.66737 12.9798C1.65842 12.9719 1.64972 12.9637 1.64127 12.9552L0.91676 12.2307C0.854086 12.168 0.807132 12.0952 0.775899 12.0123C0.76171 11.9744 0.751314 11.9356 0.744709 11.8957C0.73815 11.8558 0.735527 11.8157 0.73684 11.7754C0.738195 11.7349 0.743445 11.6951 0.752589 11.6558C0.76178 11.6164 0.774713 11.5783 0.79139 11.5415C0.808062 11.5047 0.828184 11.4699 0.851753 11.437C0.875277 11.4042 0.901782 11.374 0.93127 11.3464C0.960799 11.3187 0.992712 11.2942 1.02701 11.2729C1.06135 11.2516 1.09741 11.2338 1.13519 11.2196L7.48503 8.83065L7.70172 9.40662L7.46793 8.83738C7.30131 8.90581 7.19929 9.02813 7.16188 9.20433C7.12447 9.38052 7.16804 9.53378 7.29258 9.66413L4.08401 6.30869C4.11651 6.34268 4.15489 6.36765 4.19913 6.38361C4.24336 6.39958 4.28488 6.40528 4.32368 6.40072L2.06699 6.61707C1.84325 6.64277 1.66241 6.63306 1.52446 6.58794C1.36742 6.53654 1.20111 6.42306 1.02555 6.24749L0.538186 5.76013C0.466554 5.6885 0.412548 5.60989 0.376168 5.52431C0.307038 5.36151 0.30319 5.19823 0.364627 5.03446C0.425199 4.87308 0.538504 4.74799 0.704544 4.65921L3.18106 3.26294C3.19923 3.25269 3.21788 3.24339 3.23701 3.23504L3.24055 3.23263L3.24297 3.22908C3.2514 3.20976 3.26081 3.19092 3.27119 3.17256L4.67145 0.695143C4.72967 0.59007 4.80077 0.506741 4.88476 0.445155C5.01699 0.348186 5.16382 0.306817 5.32526 0.32105C5.48213 0.33488 5.61749 0.398724 5.73134 0.51258L6.24427 1.0255C6.37264 1.15388 6.47144 1.30351 6.54066 1.47441C6.62171 1.6745 6.64935 1.87331 6.62358 2.07084L6.01337 1.99125L6.62585 2.05101L6.40827 4.28111C6.40776 4.28639 6.40718 4.29166 6.40653 4.29692C6.41251 4.24861 6.40723 4.20156 6.39071 4.15577C6.37418 4.10999 6.3505 4.07261 6.31964 4.04363L9.67813 7.30421C9.68878 7.31456 9.69905 7.32527 9.70892 7.33636C9.5764 7.18762 9.41236 7.13225 9.21682 7.17025C9.02127 7.20824 8.89101 7.31799 8.82604 7.49948L11.2193 1.13552C11.2505 1.05253 11.2975 0.979687 11.3602 0.916992C11.3888 0.88842 11.4198 0.86291 11.4534 0.840462C11.487 0.818013 11.5225 0.799056 11.5598 0.78359C11.5972 0.768128 11.6356 0.756457 11.6753 0.748574C11.7149 0.740691 11.7549 0.73675 11.7953 0.736751C11.8357 0.736748 11.8757 0.74069 11.9154 0.748576C11.955 0.756457 11.9935 0.768129 12.0308 0.783591C12.0682 0.799054 12.1036 0.81801 12.1372 0.840462C12.1708 0.862909 12.2019 0.888419 12.2305 0.916992L12.9618 1.6483C12.9702 1.65671 12.9783 1.66535 12.9863 1.67424C13.08 1.77952 13.1473 1.89962 13.1882 2.03452C13.2292 2.16942 13.2399 2.30669 13.2204 2.44632L12.6109 2.3614L13.2234 2.42104L12.4631 10.2297C12.4599 10.2619 12.4543 10.2936 12.4461 10.3249C12.4719 10.2256 12.4699 10.1269 12.4399 10.0288C12.41 9.93059 12.3566 9.8475 12.2797 9.77949C12.2851 9.78428 12.2904 9.78914 12.2956 9.79407L14.1069 11.5129L13.6833 11.9593L14.0906 11.4979C14.1929 11.5883 14.3681 11.7575 14.6162 12.0055Z" fill="#80ED99"/>
</svg>
