<svg width="19" height="19" viewBox="0 0 19 19" fill="none" xmlns="http://www.w3.org/2000/svg">
<path d="M15.839 14.8603C15.5802 14.6015 15.404 14.4308 15.3104 14.3482C15.3042 14.3427 15.2981 14.3371 15.292 14.3314L13.2543 12.3977L13.7309 11.8955L13.2722 12.4141C13.1634 12.3179 13.0878 12.2003 13.0454 12.0613C13.003 11.9223 13.0001 11.7826 13.0367 11.642L13.7068 11.8163L13.0177 11.7492L13.8731 2.96447C13.8741 2.95497 13.8752 2.94549 13.8765 2.93603C13.8704 2.98001 13.8738 3.02325 13.8867 3.06575C13.8995 3.10824 13.9207 3.14607 13.9503 3.17924L14.4673 2.71888L13.9778 3.20841L13.1551 2.38569L13.6446 1.89615L14.2926 2.13984L11.6002 9.2993C11.5011 9.57612 11.3036 9.74326 11.0079 9.80072C10.7121 9.85819 10.4641 9.77445 10.2636 9.54952L10.7805 9.08895L10.2983 9.58567L6.51999 5.91753C6.40432 5.80873 6.31832 5.67629 6.26199 5.52019C6.20567 5.3641 6.1877 5.2037 6.20808 5.03902L6.89515 5.12402L6.20612 5.0568L6.45088 2.54793C6.45161 2.54048 6.45245 2.53304 6.45342 2.52562C6.45152 2.54021 6.45133 2.55232 6.45285 2.56195C6.45285 2.56195 6.45169 2.55821 6.44979 2.55355C6.44227 2.53495 6.43254 2.51969 6.42061 2.50776L5.84357 1.93072C5.9528 2.03995 6.08634 2.10153 6.24419 2.11545C6.40904 2.12998 6.55732 2.08895 6.68904 1.99236C6.75791 1.94186 6.80868 1.88712 6.84136 1.82815L5.26037 4.62543L4.65767 4.28478L5.29212 4.56183C5.22163 4.72325 5.12412 4.86623 4.99957 4.99078C4.87503 5.11532 4.73205 5.21283 4.57063 5.28332L4.29358 4.64887L4.63359 5.25193L1.84754 6.8227C1.94951 6.76823 2.0275 6.66904 2.0815 6.52514C2.14196 6.36389 2.13896 6.20496 2.07247 6.04835C2.04327 5.97967 2.00558 5.92225 1.95941 5.87607L2.50769 6.42435C2.54954 6.46621 2.57866 6.49334 2.59504 6.50575C2.57817 6.49295 2.55334 6.48118 2.52056 6.47044C2.48635 6.4593 2.45693 6.45386 2.43233 6.4541C2.44608 6.45397 2.4827 6.45049 2.54218 6.44365L5.10679 6.19751C5.26068 6.17965 5.41469 6.19852 5.56884 6.25414C5.72299 6.30976 5.85671 6.39679 5.96999 6.51522L9.57976 10.2902C9.77671 10.4963 9.8456 10.7387 9.78642 11.0174C9.72725 11.2961 9.56588 11.4896 9.30232 11.5979C9.29595 11.6005 9.28954 11.603 9.28309 11.6054L2.13956 14.293L1.89577 13.645L2.38531 13.1555L3.20038 13.9705L2.71084 14.4601L3.17102 13.9429C3.13792 13.9135 3.10017 13.8923 3.0578 13.8793C3.01538 13.8665 2.97223 13.8631 2.92834 13.8691C2.93779 13.8678 2.94724 13.8667 2.9567 13.8658L11.747 13.0214L11.8132 13.7105L11.6695 13.0332C11.8536 12.9942 12.0343 13.0246 12.2114 13.1244C12.2875 13.1673 12.3545 13.2177 12.4125 13.2757C12.4168 13.28 12.4211 13.2844 12.4254 13.2889L14.3284 15.296C14.3338 15.3017 14.3391 15.3075 14.3443 15.3133C14.4299 15.4099 14.6008 15.5864 14.8572 15.8427C15.4677 16.4533 16.0132 16.8517 16.4936 17.0378C16.7875 17.1517 16.9801 17.163 17.0714 17.0717C17.1623 16.9808 17.151 16.7895 17.0376 16.4977C16.8514 16.019 16.4519 15.4732 15.839 14.8603ZM16.8181 13.8812C17.5682 14.6313 18.0715 15.3362 18.328 15.9959C18.4753 16.3746 18.5348 16.7281 18.5063 17.0562C18.4723 17.4494 18.3204 17.7809 18.0504 18.0508C17.7805 18.3207 17.4486 18.4727 17.0547 18.5067C16.7263 18.5351 16.3725 18.4758 15.9934 18.3289C15.3315 18.0725 14.6264 17.5701 13.8781 16.8218C13.602 16.5457 13.4119 16.3489 13.3078 16.2313L13.826 15.7723L13.3237 16.2487L11.4206 14.2416L11.923 13.7652L11.4334 14.2548C11.5676 14.3889 11.7421 14.4333 11.9568 14.3877C11.9312 14.3932 11.9054 14.3971 11.8793 14.3996L3.08911 15.2441L3.02295 14.5549L3.11755 15.2407C2.96072 15.2624 2.8066 15.2502 2.65518 15.2041C2.50371 15.1581 2.36887 15.0825 2.25067 14.9773C2.2406 14.9683 2.23082 14.9591 2.22131 14.9496L1.40623 14.1345C1.33573 14.064 1.2829 13.9821 1.24777 13.8888C1.2318 13.8462 1.22011 13.8025 1.21268 13.7577C1.2053 13.7128 1.20235 13.6677 1.20382 13.6223C1.20535 13.5768 1.21126 13.532 1.22154 13.4877C1.23188 13.4434 1.24643 13.4006 1.26519 13.3592C1.28395 13.3178 1.30658 13.2786 1.3331 13.2416C1.35956 13.2047 1.38938 13.1707 1.42256 13.1397C1.45578 13.1086 1.49168 13.081 1.53026 13.057C1.56889 13.033 1.60946 13.013 1.65197 12.997L8.79553 10.3095L9.03931 10.9575L8.7763 10.3171C8.58885 10.394 8.47408 10.5316 8.43199 10.7299C8.38991 10.9281 8.43892 11.1005 8.57903 11.2471L4.96939 7.47227C5.00595 7.51051 5.04912 7.53861 5.0989 7.55656C5.14866 7.57452 5.19537 7.58094 5.23901 7.5758L2.70024 7.8192C2.44853 7.84811 2.24509 7.83719 2.08989 7.78643C1.91322 7.72861 1.72613 7.60094 1.52862 7.40343L0.980339 6.85515C0.899752 6.77456 0.838995 6.68613 0.798068 6.58985C0.720296 6.4067 0.715968 6.22301 0.785084 6.03877C0.853227 5.85721 0.980696 5.71649 1.16749 5.61661L3.95357 4.04581C3.97402 4.03428 3.995 4.02382 4.01651 4.01442L4.0205 4.0117L4.02322 4.00772C4.03271 3.98598 4.04329 3.96478 4.05497 3.94413L5.63026 1.15704C5.69576 1.03883 5.77575 0.945083 5.87023 0.875799C6.01899 0.766709 6.18418 0.720169 6.3658 0.73618C6.54227 0.75174 6.69455 0.823564 6.82264 0.951652L7.39968 1.52869C7.5441 1.67311 7.65525 1.84145 7.73312 2.03371C7.8243 2.25881 7.85539 2.48247 7.82641 2.7047L7.13992 2.61516L7.82895 2.68238L7.58419 5.19125C7.58361 5.19719 7.58295 5.20312 7.58222 5.20904C7.58895 5.15469 7.58301 5.10176 7.56443 5.05024C7.54584 4.99873 7.51919 4.95668 7.48448 4.92408L11.2628 8.59224C11.2748 8.60388 11.2863 8.61593 11.2974 8.6284C11.1483 8.46107 10.9638 8.39878 10.7438 8.44153C10.5238 8.48427 10.3773 8.60774 10.3042 8.81192L12.9966 1.65246C13.0317 1.5591 13.0846 1.47715 13.1551 1.40662C13.1872 1.37447 13.2222 1.34577 13.26 1.32052C13.2978 1.29526 13.3377 1.27394 13.3797 1.25654C13.4217 1.23914 13.465 1.22601 13.5096 1.21715C13.5541 1.20828 13.5992 1.20384 13.6446 1.20384C13.6901 1.20384 13.7351 1.20828 13.7797 1.21715C13.8243 1.22601 13.8676 1.23914 13.9096 1.25654C13.9515 1.27393 13.9914 1.29526 14.0292 1.32052C14.067 1.34577 14.102 1.37447 14.1342 1.40662L14.9569 2.22934C14.9663 2.2388 14.9755 2.24852 14.9844 2.25852C15.0899 2.37696 15.1656 2.51207 15.2116 2.66384C15.2577 2.8156 15.2698 2.97002 15.2479 3.1271L14.5622 3.03157L15.2512 3.09867L14.3958 11.8834C14.3923 11.9196 14.3859 11.9553 14.3767 11.9905C14.4058 11.8788 14.4035 11.7678 14.3698 11.6573C14.3361 11.5469 14.276 11.4534 14.1895 11.3769C14.1956 11.3823 14.2016 11.3878 14.2074 11.3933L16.2452 13.327L15.7686 13.8292L16.2268 13.3102C16.3419 13.4118 16.539 13.6021 16.8181 13.8812Z" fill="#FF6F3C"/>
</svg>
