<svg width="48" height="48" viewBox="0 0 48 48" fill="none" xmlns="http://www.w3.org/2000/svg">
<g clip-path="url(#clip0_1007_822)">
<path d="M24 0C10.7452 0 0 10.7452 0 24V24.036C0 37.2908 10.7092 48 23.964 48H24C37.2548 48 48 37.2908 48 24.036V24C48 10.7452 37.2908 0 24.036 0H24Z" fill="#FEF3C7"/>
<mask id="mask0_1007_822" style="mask-type:luminance" maskUnits="userSpaceOnUse" x="10" y="10" width="28" height="28">
<path d="M10 10H38V38H10V10Z" fill="white"/>
</mask>
<g mask="url(#mask0_1007_822)">
<path d="M24 16.4532C23.6678 16.4532 23.3842 16.3357 23.1493 16.1008C22.9144 15.8658 22.7969 15.5823 22.7969 15.25V12.625C22.7969 12.2928 22.9144 12.0092 23.1493 11.7743C23.3842 11.5394 23.6678 11.4219 24 11.4219C24.3323 11.4219 24.6158 11.5394 24.8508 11.7743C25.0857 12.0092 25.2031 12.2928 25.2031 12.625V15.25C25.2031 15.5823 25.0857 15.8658 24.8508 16.1008C24.6158 16.3357 24.3323 16.4532 24 16.4532ZM24 36.5781C23.6678 36.5781 23.3842 36.4607 23.1493 36.2258C22.9144 35.9908 22.7969 35.7073 22.7969 35.375V32.75C22.7969 32.4178 22.9144 32.1342 23.1493 31.8993C23.3842 31.6644 23.6678 31.5469 24 31.5469C24.3323 31.5469 24.6158 31.6644 24.8508 31.8993C25.0857 32.1342 25.2031 32.4178 25.2031 32.75V35.375C25.2031 35.7073 25.0857 35.9908 24.8508 36.2258C24.6158 36.4607 24.3323 36.5781 24 36.5781ZM30.1874 19.0158C29.9441 19.0158 29.7214 18.9482 29.5191 18.8131C29.3168 18.6779 29.1692 18.498 29.076 18.2733C28.9829 18.0485 28.9601 17.8169 29.0074 17.5783C29.0548 17.3397 29.1645 17.1344 29.3364 16.9623L31.1925 15.1062C31.4283 14.8766 31.7108 14.7628 32.0399 14.765C32.369 14.7672 32.65 14.8846 32.8827 15.1174C33.1154 15.3501 33.2329 15.631 33.2351 15.9602C33.2372 16.2893 33.1235 16.5717 32.8939 16.8075L31.0378 18.6636C30.9251 18.7765 30.7951 18.8635 30.6477 18.9245C30.5003 18.9856 30.3469 19.016 30.1874 19.0158ZM15.9566 33.2466C15.7132 33.2466 15.4904 33.1789 15.2881 33.0437C15.0858 32.9085 14.9382 32.7285 14.8451 32.5037C14.752 32.2789 14.7292 32.0471 14.7768 31.8085C14.8243 31.5699 14.9341 31.3645 15.1062 31.1925L16.9623 29.3364C17.1962 29.0962 17.4809 28.975 17.8162 28.9728C18.1515 28.9706 18.4377 29.0881 18.6748 29.3252C18.9119 29.5623 19.0294 29.8485 19.0272 30.1838C19.025 30.5191 18.9038 30.8038 18.6636 31.0378L16.8075 32.8939C16.6948 33.0069 16.5647 33.094 16.4172 33.1551C16.2698 33.2163 16.1162 33.2467 15.9566 33.2466ZM35.375 25.2031H32.75C32.4178 25.2031 32.1342 25.0857 31.8993 24.8508C31.6644 24.6158 31.5469 24.3323 31.5469 24C31.5469 23.6678 31.6644 23.3842 31.8993 23.1493C32.1342 22.9144 32.4178 22.7969 32.75 22.7969H35.375C35.7073 22.7969 35.9908 22.9144 36.2258 23.1493C36.4607 23.3842 36.5781 23.6678 36.5781 24C36.5781 24.3323 36.4607 24.6158 36.2258 24.8508C35.9908 25.0857 35.7073 25.2031 35.375 25.2031ZM15.25 25.2031H12.625C12.2928 25.2031 12.0092 25.0857 11.7743 24.8508C11.5393 24.6158 11.4219 24.3323 11.4219 24C11.4219 23.6678 11.5393 23.3842 11.7743 23.1493C12.0092 22.9144 12.2928 22.7969 12.625 22.7969H15.25C15.5822 22.7969 15.8658 22.9144 16.1007 23.1493C16.3357 23.3842 16.4531 23.6678 16.4531 24C16.4531 24.3323 16.3357 24.6158 16.1007 24.8508C15.8658 25.0857 15.5822 25.2031 15.25 25.2031ZM32.0435 33.2466C31.8838 33.2468 31.7303 33.2163 31.5828 33.1551C31.4353 33.094 31.3052 33.0069 31.1925 32.8939L29.3364 31.0378C29.1068 30.802 28.993 30.5195 28.9951 30.1904C28.9973 29.8612 29.1148 29.5803 29.3475 29.3475C29.5803 29.1148 29.8612 28.9973 30.1904 28.9951C30.5195 28.993 30.802 29.1068 31.0378 29.3364L32.8939 31.1925C33.0659 31.3645 33.1758 31.5699 33.2233 31.8085C33.2708 32.0471 33.248 32.2789 33.1549 32.5037C33.0619 32.7285 32.9142 32.9085 32.7119 33.0437C32.5096 33.1789 32.2868 33.2466 32.0435 33.2466ZM17.8127 19.0158C17.6531 19.0161 17.4997 18.9858 17.3523 18.9247C17.2049 18.8637 17.0749 18.7766 16.9623 18.6636L15.1062 16.8075C14.8765 16.5717 14.7628 16.2893 14.765 15.9602C14.7671 15.631 14.8846 15.3501 15.1173 15.1173C15.3501 14.8846 15.631 14.7672 15.9601 14.765C16.2893 14.7628 16.5717 14.8766 16.8075 15.1062L18.6636 16.9623C18.8355 17.1344 18.9452 17.3397 18.9926 17.5783C19.04 17.8169 19.0171 18.0485 18.924 18.2733C18.8309 18.498 18.6832 18.6779 18.4809 18.8131C18.2787 18.9482 18.0559 19.0158 17.8127 19.0158ZM24 29.5781C22.4597 29.5781 21.1449 29.0336 20.0557 27.9444C18.9665 26.8552 18.4219 25.5404 18.4219 24C18.4219 22.4597 18.9665 21.1449 20.0557 20.0557C21.1449 18.9665 22.4597 18.4219 24 18.4219C25.5404 18.4219 26.8552 18.9665 27.9444 20.0557C29.0336 21.1449 29.5781 22.4597 29.5781 24C29.5763 25.5396 29.0311 26.8538 27.9424 27.9424C26.8538 29.0311 25.5396 29.5763 24 29.5781Z" fill="#F59E0B"/>
</g>
</g>
<defs>
<clipPath id="clip0_1007_822">
<rect width="48" height="48" fill="white"/>
</clipPath>
</defs>
</svg>
