<svg width="16" height="17" viewBox="0 0 16 17" fill="none" xmlns="http://www.w3.org/2000/svg">
<path d="M7.05671 7.55794C6.8067 7.80804 6.66628 8.14721 6.66634 8.50085C6.6664 8.85448 6.80694 9.1936 7.05704 9.44361C7.30714 9.69362 7.64631 9.83404 7.99994 9.83398C8.35358 9.83392 8.6927 9.69338 8.94271 9.44328M11.1207 11.6154C10.1855 12.2005 9.1031 12.5073 8 12.5C5.6 12.5 3.6 11.1667 2 8.50002C2.848 7.08669 3.808 6.04802 4.88 5.38402M6.78667 4.62002C7.18603 4.53917 7.59254 4.49897 8 4.50002C10.4 4.50002 12.4 5.83335 14 8.50002C13.556 9.24002 13.0807 9.87802 12.5747 10.4134M2 2.5L14 14.5" stroke="#ACB5BB" stroke-width="1.3" stroke-linecap="round" stroke-linejoin="round"/>
</svg>
