<svg width="40" height="40" viewBox="0 0 40 40" fill="none" xmlns="http://www.w3.org/2000/svg">
<path d="M20.0257 31.2087C23.6673 31.2087 26.9399 28.8829 28.0309 25.4087C28.2618 24.6738 28.4023 23.8937 28.4023 23.0837C28.4023 18.5525 24.6925 14.8962 24.6925 14.8962C24.6925 14.8962 24.9481 16.3764 24.7891 17.6363C24.6301 18.8962 24.0441 19.6696 24.0441 19.6696C24.0441 19.6696 24.472 17.6913 23.9035 16.3649C23.2491 14.8383 22.0286 14.1301 21.5598 12.7556C21.0201 11.1735 21.8287 9.33368 21.8287 9.33368C21.8287 9.33368 19.1691 10.3614 17.2473 13.0134C15.0676 16.0211 16.5364 19.8962 16.5364 19.8962C16.5364 19.8962 16.3332 18.8259 15.2316 17.9587C14.1301 17.0915 14.5763 15.7466 14.5763 15.7466C14.5763 15.7466 11.5986 19.0838 11.5986 23.0838C11.5986 24.1697 11.9096 25.2649 12.3626 26.2842C13.7021 29.298 16.7276 31.2087 20.0257 31.2087Z" fill="#D10028"/>
<path d="M24.692 14.8962C24.692 14.8962 24.8307 15.7007 24.84 16.6282C25.7081 18.0822 26.5268 20.0177 26.5268 22.1462C26.5268 22.9562 26.3863 23.7363 26.1555 24.4712C25.0644 27.9454 21.7918 30.2712 18.1503 30.2712C17.1872 30.2711 16.2312 30.1071 15.3232 29.7862C16.7157 30.7143 18.3518 31.2093 20.0253 31.2087C23.6668 31.2087 26.9394 28.8829 28.0305 25.4087C28.2613 24.6738 28.4018 23.8937 28.4018 23.0837C28.4017 18.5525 24.692 14.8962 24.692 14.8962Z" fill="#B7022D"/>
<path d="M24.2283 25.0656C24.2283 22.7775 22.7273 21.3017 21.7926 20.3549C20.1283 18.6687 20.4238 16.75 20.4238 16.75C20.4238 16.75 17.1617 19.5544 16.6492 21.8805C16.1592 24.1053 17.3919 25.3421 17.3919 25.3421C17.3919 25.3421 16.8175 25.1203 16.4603 24.723C16.0053 24.2171 15.8418 23.604 15.8418 23.604C15.8418 23.604 15.6517 24.0641 15.901 25.6379C16.0782 26.7566 16.6594 27.5938 17.3415 28.2099C18.9991 29.7073 21.5843 29.5623 23.0867 27.9092C23.7305 27.201 24.2283 26.2654 24.2283 25.0656Z" fill="#FFA91A"/>
<path d="M17.7912 25.134C17.7415 25.134 17.692 25.1144 17.6551 25.0755C17.5787 24.9949 16.9082 24.2492 16.9082 22.9081C16.9082 22.6012 16.9441 22.2826 17.0148 21.9613C17.1184 21.4911 17.3534 20.9606 17.7132 20.3845C17.7396 20.3423 17.7816 20.3123 17.8301 20.3011C17.8785 20.2899 17.9294 20.2984 17.9716 20.3247C18.0138 20.3511 18.0438 20.3931 18.055 20.4416C18.0662 20.49 18.0577 20.5409 18.0313 20.5831C17.6942 21.1228 17.4755 21.6136 17.3811 22.042C17.3162 22.3368 17.2833 22.6282 17.2833 22.9081C17.2833 24.1244 17.901 24.7898 17.9274 24.8175C17.9526 24.8441 17.9695 24.8775 17.9759 24.9136C17.9823 24.9497 17.978 24.9869 17.9635 25.0206C17.949 25.0543 17.925 25.083 17.8944 25.1031C17.8638 25.1233 17.8279 25.134 17.7912 25.134ZM18.2944 20.0516C18.2597 20.0515 18.2258 20.0419 18.1962 20.0238C18.1667 20.0056 18.1428 19.9796 18.1272 19.9487C18.1115 19.9178 18.1048 19.8831 18.1076 19.8486C18.1105 19.8141 18.1228 19.781 18.1434 19.7531L18.1984 19.6787C18.2131 19.659 18.2316 19.6423 18.2527 19.6297C18.2739 19.6171 18.2973 19.6088 18.3217 19.6053C18.3461 19.6017 18.3709 19.603 18.3948 19.6091C18.4186 19.6151 18.4411 19.6258 18.4608 19.6406C18.4805 19.6553 18.4972 19.6737 18.5098 19.6949C18.5224 19.7161 18.5307 19.7395 18.5342 19.7639C18.5378 19.7882 18.5365 19.813 18.5304 19.8369C18.5244 19.8608 18.5137 19.8832 18.499 19.903L18.4455 19.9751C18.4281 19.9988 18.4054 20.0181 18.3791 20.0314C18.3529 20.0447 18.3238 20.0516 18.2944 20.0516Z" fill="#FFC91D"/>
<path d="M21.7926 20.3549C20.1282 18.6687 20.4237 16.75 20.4237 16.75C20.4237 16.75 19.3874 17.6411 18.3911 18.8352C19.3084 19.7839 20.4782 21.1705 20.4782 23.1906C20.4782 24.3904 19.9804 25.326 19.3366 26.0343C18.6022 26.8424 17.6089 27.2891 16.5918 27.3607C16.8129 27.6814 17.0687 27.9637 17.3413 28.21C18.999 29.7073 21.5842 29.5624 23.0866 27.9093C23.7304 27.201 24.2282 26.2654 24.2282 25.0656C24.2283 22.7775 22.7272 21.3018 21.7926 20.3549Z" fill="#F79219"/>
<path d="M21.7919 20.3549C20.1276 18.6687 20.4231 16.75 20.4231 16.75C20.4231 16.75 19.769 17.3129 19.0008 18.1425C19.2071 18.5596 19.5008 18.9958 19.9169 19.4174C20.8515 20.3643 22.3526 21.84 22.3526 24.1281C22.3526 25.3279 21.8548 26.2635 21.211 26.9718C20.2099 28.0734 18.7282 28.5042 17.3604 28.2268C19.0188 29.7057 21.5894 29.556 23.086 27.9093C23.7298 27.201 24.2276 26.2654 24.2276 25.0656C24.2276 22.7775 22.7265 21.3018 21.7919 20.3549Z" fill="#EF7816"/>
<path d="M23.4438 8.79126C23.4438 8.79126 22.318 9.50113 22.3394 10.8187C22.3506 11.5146 22.7061 12.0741 22.9659 12.694C23.198 13.2477 23.2441 14.0899 23.2441 14.0899C23.2441 14.0899 24.0154 13.4279 24.0978 11.9596C24.1301 11.3834 23.825 10.6862 23.666 10.187C23.4197 9.41404 23.4438 8.79126 23.4438 8.79126ZM15.2713 15.1691C15.2713 15.1691 14.3184 14.2358 14.6178 12.9495C14.7758 12.2701 15.4813 11.8258 15.944 11.3363C16.4155 10.8374 16.6326 9.93604 16.6326 9.93604C16.6326 9.93604 17.1368 10.5519 16.8194 11.7446C16.6154 12.5112 15.9786 13.0665 15.7173 13.5221C15.3125 14.2271 15.2713 15.1691 15.2713 15.1691Z" fill="#D10028"/>
</svg>
