<svg width="25" height="24" viewBox="0 0 25 24" fill="none" xmlns="http://www.w3.org/2000/svg">
<g clip-path="url(#clip0_1423_4718)">
<mask id="mask0_1423_4718" style="mask-type:luminance" maskUnits="userSpaceOnUse" x="0" y="0" width="25" height="24">
<path d="M0.648438 0H24.6484V24H0.648438V0Z" fill="white"/>
</mask>
<g mask="url(#mask0_1423_4718)">
<path fill-rule="evenodd" clip-rule="evenodd" d="M3.64844 6.51103C3.64844 5.72238 3.94936 5.05275 4.5512 4.50216C5.13383 3.96914 5.83291 3.70264 6.64843 3.70264H8.89844C9.71396 3.70264 10.413 3.96914 10.9957 4.50216C11.5975 5.05275 11.8984 5.72238 11.8984 6.51103V8.56944C11.8984 9.35809 11.5975 10.0277 10.9957 10.5783C10.413 11.1113 9.71396 11.3778 8.89844 11.3778H6.64843C5.83291 11.3778 5.13383 11.1113 4.5512 10.5783C3.94936 10.0277 3.64844 9.35809 3.64844 8.56944V6.51103ZM13.3984 6.51103C13.3984 5.72238 13.6994 5.05275 14.3012 4.50216C14.8838 3.96914 15.5829 3.70264 16.3984 3.70264H18.6485C19.464 3.70264 20.1631 3.96914 20.7457 4.50216C21.3475 5.05275 21.6484 5.72238 21.6484 6.51103V8.56944C21.6484 9.35809 21.3475 10.0277 20.7457 10.5783C20.1631 11.1113 19.464 11.3778 18.6485 11.3778H16.3984C15.5829 11.3778 14.8838 11.1113 14.3012 10.5783C13.6994 10.0277 13.3984 9.35809 13.3984 8.56944V6.51103ZM5.14844 6.51103V8.56944C5.14844 8.9176 5.28686 9.21831 5.56369 9.47157C5.85975 9.74241 6.22133 9.87783 6.64843 9.87783H8.89844C9.32555 9.87783 9.68714 9.74241 9.98319 9.47157C10.26 9.21831 10.3984 8.9176 10.3984 8.56944V6.51103C10.3984 6.16287 10.26 5.86216 9.98319 5.6089C9.68714 5.33806 9.32555 5.20264 8.89844 5.20264H6.64843C6.22133 5.20264 5.85975 5.33806 5.56369 5.6089C5.28686 5.86216 5.14844 6.16287 5.14844 6.51103ZM14.8984 6.51103V8.56944C14.8984 8.9176 15.0369 9.21831 15.3137 9.47157C15.6097 9.74241 15.9713 9.87783 16.3984 9.87783H18.6485C19.0755 9.87783 19.4371 9.74241 19.7332 9.47157C20.01 9.21831 20.1484 8.9176 20.1484 8.56944V6.51103C20.1484 6.16287 20.01 5.86216 19.7332 5.6089C19.4371 5.33806 19.0755 5.20264 18.6485 5.20264H16.3984C15.9713 5.20264 15.6097 5.33806 15.3137 5.6089C15.0369 5.86216 14.8984 6.16287 14.8984 6.51103ZM3.64844 15.4308C3.64844 14.6421 3.94936 13.9725 4.5512 13.4219C5.13383 12.8889 5.83291 12.6224 6.64843 12.6224H8.89844C9.71396 12.6224 10.413 12.8889 10.9957 13.4219C11.5975 13.9725 11.8984 14.6421 11.8984 15.4308V17.4892C11.8984 18.2778 11.5975 18.9474 10.9957 19.4981C10.413 20.0311 9.71396 20.2976 8.89844 20.2976H6.64843C5.83291 20.2976 5.13383 20.0311 4.5512 19.4981C3.94936 18.9474 3.64844 18.2778 3.64844 17.4892V15.4308ZM13.3984 15.4308C13.3984 14.6421 13.6994 13.9725 14.3012 13.4219C14.8838 12.8889 15.5829 12.6224 16.3984 12.6224H18.6485C19.464 12.6224 20.1631 12.8889 20.7457 13.4219C21.3475 13.9725 21.6484 14.6421 21.6484 15.4308V17.4892C21.6484 18.2778 21.3475 18.9474 20.7457 19.4981C20.1631 20.0311 19.464 20.2976 18.6485 20.2976H16.3984C15.5829 20.2976 14.8838 20.0311 14.3012 19.4981C13.6994 18.9474 13.3984 18.2778 13.3984 17.4892V15.4308ZM5.14844 15.4308V17.4892C5.14844 17.8373 5.28686 18.138 5.56369 18.3913C5.85975 18.6621 6.22133 18.7975 6.64843 18.7975H8.89844C9.32555 18.7975 9.68714 18.6621 9.98319 18.3913C10.26 18.138 10.3984 17.8373 10.3984 17.4892V15.4308C10.3984 15.0826 10.26 14.7819 9.98319 14.5286C9.68714 14.2578 9.32555 14.1224 8.89844 14.1224H6.64843C6.22133 14.1224 5.85975 14.2578 5.56369 14.5286C5.28686 14.7819 5.14844 15.0826 5.14844 15.4308ZM14.8984 15.4308V17.4892C14.8984 17.8373 15.0369 18.138 15.3137 18.3913C15.6097 18.6621 15.9713 18.7975 16.3984 18.7975H18.6485C19.0755 18.7975 19.4371 18.6621 19.7332 18.3913C20.01 18.138 20.1484 17.8373 20.1484 17.4892V15.4308C20.1484 15.0826 20.01 14.7819 19.7332 14.5286C19.4371 14.2578 19.0755 14.1224 18.6485 14.1224H16.3984C15.9713 14.1224 15.6097 14.2578 15.3137 14.5286C15.0369 14.7819 14.8984 15.0826 14.8984 15.4308Z" fill="#FF6F3C"/>
</g>
</g>
<defs>
<clipPath id="clip0_1423_4718">
<rect width="24" height="24" fill="white" transform="translate(0.648438)"/>
</clipPath>
</defs>
</svg>
