<svg width="32" height="33" viewBox="0 0 32 33" fill="none" xmlns="http://www.w3.org/2000/svg">
<g clip-path="url(#clip0_1423_5539)">
<path d="M16 0.414551C7.16344 0.414551 0 7.57799 0 16.4146V16.4386C0 25.2752 7.13944 32.4146 15.976 32.4146H16C24.8366 32.4146 32 25.2752 32 16.4386V16.4146C32 7.57799 24.8606 0.414551 16.024 0.414551H16Z" fill="#FFF5F2" fill-opacity="0.6"/>
<mask id="mask0_1423_5539" style="mask-type:luminance" maskUnits="userSpaceOnUse" x="6" y="6" width="20" height="21">
<path d="M6 6.41455H26V26.4146H6V6.41455Z" fill="white"/>
</mask>
<g mask="url(#mask0_1423_5539)">
<path d="M22.25 9.53955H9.75C8.71447 9.53955 7.875 10.379 7.875 11.4146V22.6646C7.875 23.7001 8.71447 24.5396 9.75 24.5396H22.25C23.2855 24.5396 24.125 23.7001 24.125 22.6646V11.4146C24.125 10.379 23.2855 9.53955 22.25 9.53955Z" stroke="#FF6F3C" stroke-width="1.25" stroke-linejoin="round"/>
<path d="M17.5625 16.4146C18.0803 16.4146 18.5 15.9948 18.5 15.4771C18.5 14.9593 18.0803 14.5396 17.5625 14.5396C17.0447 14.5396 16.625 14.9593 16.625 15.4771C16.625 15.9948 17.0447 16.4146 17.5625 16.4146Z" fill="#FF6F3C"/>
<path d="M20.6875 16.4146C21.2053 16.4146 21.625 15.9948 21.625 15.4771C21.625 14.9593 21.2053 14.5396 20.6875 14.5396C20.1697 14.5396 19.75 14.9593 19.75 15.4771C19.75 15.9948 20.1697 16.4146 20.6875 16.4146Z" fill="#FF6F3C"/>
<path d="M17.5625 19.5396C18.0803 19.5396 18.5 19.1198 18.5 18.6021C18.5 18.0843 18.0803 17.6646 17.5625 17.6646C17.0447 17.6646 16.625 18.0843 16.625 18.6021C16.625 19.1198 17.0447 19.5396 17.5625 19.5396Z" fill="#FF6F3C"/>
<path d="M20.6875 19.5396C21.2053 19.5396 21.625 19.1198 21.625 18.6021C21.625 18.0843 21.2053 17.6646 20.6875 17.6646C20.1697 17.6646 19.75 18.0843 19.75 18.6021C19.75 19.1198 20.1697 19.5396 20.6875 19.5396Z" fill="#FF6F3C"/>
<path d="M11.3125 19.5396C11.8303 19.5396 12.25 19.1198 12.25 18.6021C12.25 18.0843 11.8303 17.6646 11.3125 17.6646C10.7947 17.6646 10.375 18.0843 10.375 18.6021C10.375 19.1198 10.7947 19.5396 11.3125 19.5396Z" fill="#FF6F3C"/>
<path d="M14.4375 19.5396C14.9553 19.5396 15.375 19.1198 15.375 18.6021C15.375 18.0843 14.9553 17.6646 14.4375 17.6646C13.9197 17.6646 13.5 18.0843 13.5 18.6021C13.5 19.1198 13.9197 19.5396 14.4375 19.5396Z" fill="#FF6F3C"/>
<path d="M11.3125 22.6646C11.8303 22.6646 12.25 22.2448 12.25 21.7271C12.25 21.2093 11.8303 20.7896 11.3125 20.7896C10.7947 20.7896 10.375 21.2093 10.375 21.7271C10.375 22.2448 10.7947 22.6646 11.3125 22.6646Z" fill="#FF6F3C"/>
<path d="M14.4375 22.6646C14.9553 22.6646 15.375 22.2448 15.375 21.7271C15.375 21.2093 14.9553 20.7896 14.4375 20.7896C13.9197 20.7896 13.5 21.2093 13.5 21.7271C13.5 22.2448 13.9197 22.6646 14.4375 22.6646Z" fill="#FF6F3C"/>
<path d="M17.5625 22.6646C18.0803 22.6646 18.5 22.2448 18.5 21.7271C18.5 21.2093 18.0803 20.7896 17.5625 20.7896C17.0447 20.7896 16.625 21.2093 16.625 21.7271C16.625 22.2448 17.0447 22.6646 17.5625 22.6646Z" fill="#FF6F3C"/>
<path fill-rule="evenodd" clip-rule="evenodd" d="M11 7.66455C10.6548 7.66455 10.375 7.94438 10.375 8.28955V9.53955C10.375 9.88473 10.6548 10.1646 11 10.1646C11.3452 10.1646 11.625 9.88473 11.625 9.53955V8.28955C11.625 7.94438 11.3452 7.66455 11 7.66455ZM21 7.66455C20.6548 7.66455 20.375 7.94438 20.375 8.28955V9.53955C20.375 9.88473 20.6548 10.1646 21 10.1646C21.3452 10.1646 21.625 9.88473 21.625 9.53955V8.28955C21.625 7.94438 21.3452 7.66455 21 7.66455Z" fill="#FF6F3C"/>
<path d="M24.125 13.2896H7.875V12.0396H24.125V13.2896Z" fill="#FF6F3C"/>
</g>
</g>
<defs>
<clipPath id="clip0_1423_5539">
<rect width="32" height="32" fill="white" transform="translate(0 0.414551)"/>
</clipPath>
</defs>
</svg>
