<svg width="28" height="29" viewBox="0 0 28 29" fill="none" xmlns="http://www.w3.org/2000/svg">
<rect y="0.414551" width="28" height="28" rx="14" fill="#FDEAE3"/>
<mask id="mask0_1423_5587" style="mask-type:luminance" maskUnits="userSpaceOnUse" x="7" y="7" width="14" height="14">
<path d="M7.4668 7.88135H20.5335V20.948H7.4668V7.88135Z" fill="white"/>
</mask>
<g mask="url(#mask0_1423_5587)">
<path d="M9.91797 16.0482C9.91797 15.5215 10.0597 14.961 10.3432 14.3666C10.4522 14.138 10.5911 13.8849 10.7599 13.6073C10.8592 13.4438 11.0142 13.2007 11.2248 12.8779C11.4869 12.4762 11.6768 12.1742 11.7946 11.972C11.9861 11.6432 12.1341 11.3434 12.2387 11.0725C12.3601 10.7578 12.4343 10.4557 12.4612 10.1661C12.4909 9.84574 12.4642 9.52703 12.3813 9.20995C12.3745 9.18401 12.3703 9.15766 12.3687 9.1309C12.3671 9.10413 12.3681 9.07747 12.3718 9.05091C12.3754 9.02435 12.3816 8.9984 12.3904 8.97306C12.3992 8.94772 12.4103 8.92348 12.4239 8.90034C12.4374 8.8772 12.4531 8.8556 12.4709 8.83555C12.4887 8.8155 12.5083 8.79737 12.5296 8.78117C12.551 8.76498 12.5737 8.75102 12.5978 8.7393C12.622 8.72758 12.647 8.71833 12.6729 8.71154C12.7068 8.70268 12.7413 8.69824 12.7763 8.69824C13.289 8.69824 13.8473 8.86644 14.4512 9.20285C15.0757 9.55071 15.6476 10.0251 16.1669 10.6261C16.7483 11.2988 17.2023 12.0646 17.5292 12.9235C17.8995 13.8965 18.0846 14.9381 18.0846 16.0482C18.0846 17.1758 17.686 18.1383 16.8887 18.9356C16.0913 19.7329 15.1289 20.1316 14.0013 20.1316C12.8737 20.1316 11.9113 19.7329 11.1139 18.9356C10.3166 18.1383 9.91797 17.1758 9.91797 16.0482ZM10.7346 16.0482C10.7346 16.9503 11.0536 17.7203 11.6914 18.3581C12.3293 18.996 13.0992 19.3149 14.0013 19.3149C14.9034 19.3149 15.6733 18.996 16.3112 18.3581C16.949 17.7203 17.268 16.9503 17.268 16.0482C17.268 15.0382 17.1006 14.0934 16.7659 13.2139C16.4732 12.4448 16.0676 11.7601 15.549 11.16C15.0926 10.6319 14.5942 10.2173 14.0538 9.91629C13.8127 9.78201 13.5787 9.68034 13.3516 9.61129C13.1404 9.54704 12.9486 9.51491 12.7763 9.51491V9.10658L13.1713 9.0032C13.3711 9.76645 13.3141 10.5543 13.0005 11.3666C12.8804 11.678 12.7136 12.0168 12.5003 12.383C12.3755 12.5972 12.1784 12.9108 11.9088 13.3241C11.7029 13.6396 11.5526 13.8754 11.4577 14.0314C11.3033 14.2856 11.1774 14.5145 11.0803 14.7182C10.8499 15.2014 10.7346 15.6447 10.7346 16.0482Z" fill="#FF7E45"/>
<path d="M16.0413 17.2731C16.0413 18.0671 15.8343 18.6846 15.4203 19.1257C15.231 19.3275 15.0077 19.4797 14.7507 19.5822C14.5151 19.6762 14.2648 19.7231 13.9997 19.7231C13.7346 19.7231 13.4843 19.6762 13.2487 19.5822C12.9916 19.4797 12.7684 19.3275 12.579 19.1257C12.165 18.6846 11.958 18.0671 11.958 17.2731C11.958 16.9075 12.0158 16.5416 12.1313 16.1755C12.1974 15.9658 12.3122 15.6837 12.4755 15.3292C12.6169 15.0223 12.7074 14.7982 12.7469 14.657C12.8042 14.4525 12.8158 14.2611 12.7819 14.0829C12.7769 14.0565 12.7745 14.03 12.7747 14.0032C12.7749 13.9763 12.7777 13.9498 12.7832 13.9236C12.7886 13.8973 12.7966 13.8718 12.807 13.8472C12.8175 13.8225 12.8303 13.799 12.8453 13.7769C12.8604 13.7547 12.8775 13.7342 12.8966 13.7154C12.9157 13.6966 12.9365 13.6798 12.9589 13.6651C12.9813 13.6504 13.005 13.638 13.0298 13.628C13.0547 13.6179 13.0803 13.6104 13.1066 13.6054C13.1318 13.6005 13.1573 13.5981 13.183 13.5981C13.5277 13.5981 13.8828 13.723 14.2483 13.9726C14.5659 14.1895 14.8617 14.479 15.1356 14.8412C15.407 15.1999 15.6223 15.584 15.7815 15.9934C15.9547 16.4388 16.0413 16.8654 16.0413 17.2731ZM15.2247 17.2731C15.2247 16.9676 15.1566 16.6396 15.0204 16.2894C14.8886 15.9506 14.7099 15.6321 14.4843 15.3339C14.264 15.0427 14.0318 14.8137 13.7877 14.647C13.5611 14.4922 13.3595 14.4148 13.183 14.4148V14.0065L13.5841 13.9301C13.642 14.2338 13.6251 14.5495 13.5333 14.8772C13.4821 15.0601 13.3768 15.3247 13.2172 15.6709C13.0683 15.9942 12.9659 16.2443 12.9101 16.4212C12.8198 16.7074 12.7747 16.9914 12.7747 17.2731C12.7747 17.8516 12.9079 18.2828 13.1745 18.5668C13.387 18.7933 13.6621 18.9065 13.9997 18.9065C14.3373 18.9065 14.6123 18.7933 14.8248 18.5668C15.0914 18.2828 15.2247 17.8516 15.2247 17.2731Z" fill="#FF7E45"/>
</g>
</svg>
