<svg width="61" height="60" viewBox="0 0 61 60" fill="none" xmlns="http://www.w3.org/2000/svg">
<rect x="0.5" width="60" height="60" rx="30" fill="#FF4842" fill-opacity="0.2"/>
<path d="M33.1635 43C36.1702 43 38.5436 43 40.3015 42.7383C42.0866 42.4724 43.5346 41.8956 44.334 40.4844L44.4722 40.2188C45.1006 38.8815 44.8434 37.4285 44.2012 35.8593C43.6898 34.6092 42.8688 33.1311 41.8315 31.3593L40.7247 29.4883L38.1583 25.1615L38.0971 25.0573C36.6268 22.5784 35.4634 20.6177 34.381 19.2865C33.2766 17.9282 32.0787 17 30.4995 17C28.9202 17.0001 27.7223 17.9282 26.618 19.2865C25.7949 20.2988 24.9244 21.6748 23.9083 23.3659L22.8406 25.1615L20.2742 29.4883L20.2104 29.5951C18.6789 32.1771 17.4704 34.2152 16.7976 35.8593C16.1128 37.5331 15.8662 39.0744 16.6648 40.4844L16.8224 40.7396C17.6468 41.9665 19.024 42.4891 20.6974 42.7383C22.4553 43 24.8288 43 27.8354 43H33.1635ZM30.4995 33.3333C29.7631 33.3332 29.1662 32.7363 29.1662 32V26C29.1662 25.2637 29.7631 24.6668 30.4995 24.6667C31.2358 24.6667 31.8328 25.2636 31.8328 26V32C31.8328 32.7364 31.2358 33.3333 30.4995 33.3333ZM30.4995 38.0027C29.7631 38.0025 29.1662 37.4056 29.1662 36.6693V36.6563C29.1662 35.9199 29.7631 35.3231 30.4995 35.3229C31.2358 35.3229 31.8328 35.9199 31.8328 36.6563V36.6693C31.8328 37.4056 31.2358 38.0027 30.4995 38.0027Z" fill="#FF4842"/>
</svg>
