<svg width="16" height="17" viewBox="0 0 16 17" fill="none" xmlns="http://www.w3.org/2000/svg">
<g clip-path="url(#clip0_512_327)">
<mask id="mask0_512_327" style="mask-type:luminance" maskUnits="userSpaceOnUse" x="0" y="0" width="16" height="17">
<path d="M0 0.5H16V16.5H0V0.5Z" fill="white"/>
</mask>
<g mask="url(#mask0_512_327)">
<path d="M13.5 7.41406V13.5C13.5 14.0523 13.3047 14.5237 12.9142 14.9142C12.5237 15.3047 12.0523 15.5 11.5 15.5H4.5C3.94772 15.5 3.47631 15.3047 3.08579 14.9142C2.69526 14.5237 2.5 14.0523 2.5 13.5V3.5C2.5 2.94772 2.69526 2.47631 3.08579 2.08579C3.47631 1.69526 3.94772 1.5 4.5 1.5H7.58594C7.78483 1.50003 7.97613 1.53809 8.15984 1.61419C8.34355 1.69029 8.50571 1.79863 8.64633 1.93922L13.0607 6.35363C13.2014 6.49428 13.3097 6.65645 13.3858 6.84016C13.4619 7.02387 13.5 7.21521 13.5 7.41406ZM12.5 7.41414C12.5 7.34786 12.4873 7.2841 12.4619 7.22286C12.4366 7.16163 12.4005 7.10759 12.3536 7.06074L7.9393 2.64641C7.89243 2.59954 7.83837 2.56343 7.77714 2.53806C7.7159 2.5127 7.65217 2.50001 7.58594 2.5H4.5C4.22386 2.5 3.98816 2.59763 3.79289 2.79289C3.59763 2.98816 3.5 3.22386 3.5 3.5V13.5C3.5 13.7761 3.59763 14.0118 3.79289 14.2071C3.98816 14.4024 4.22386 14.5 4.5 14.5H11.5C11.7761 14.5 12.0118 14.4024 12.2071 14.2071C12.4024 14.0118 12.5 13.7761 12.5 13.5V7.41414Z" fill="#3B82F6"/>
<path fill-rule="evenodd" clip-rule="evenodd" d="M8 1.75C7.72386 1.75 7.5 1.97386 7.5 2.25V6C7.5 6.41421 7.64645 6.76777 7.93934 7.06066C8.23223 7.35355 8.58579 7.5 9 7.5H12.75C13.0261 7.5 13.25 7.27614 13.25 7C13.25 6.72386 13.0261 6.5 12.75 6.5H9C8.86193 6.5 8.74408 6.45118 8.64645 6.35355C8.54882 6.25592 8.5 6.13807 8.5 6V2.25C8.5 1.97386 8.27614 1.75 8 1.75ZM5 9.5C5 9.77614 5.22386 10 5.5 10H10.5C10.7761 10 11 9.77614 11 9.5C11 9.22386 10.7761 9 10.5 9H5.5C5.22386 9 5 9.22386 5 9.5ZM5 12C5 12.2761 5.22386 12.5 5.5 12.5H10.5C10.7761 12.5 11 12.2761 11 12C11 11.7239 10.7761 11.5 10.5 11.5H5.5C5.22386 11.5 5 11.7239 5 12Z" fill="#3B82F6"/>
</g>
</g>
<defs>
<clipPath id="clip0_512_327">
<rect width="16" height="16" fill="white" transform="translate(0 0.5)"/>
</clipPath>
</defs>
</svg>
